<svg width="220" height="36" viewBox="0 0 220 36" fill="none" xmlns="http://www.w3.org/2000/svg">
<path d="M5.69756 0.00104226C3.93089 -0.00668558 2.75669 0.0310948 2.75669 0.0310948C2.4781 0.0399027 2.21386 0.156743 2.01988 0.356896C1.82589 0.557049 1.71738 0.824816 1.7173 1.10355V3.29482H1.06043C0.779222 3.29493 0.509564 3.40669 0.310719 3.60554C0.111874 3.80438 0.000113781 4.07404 0 4.35525L0 34.4337C0.000113781 34.7149 0.111874 34.9846 0.310719 35.1834C0.509564 35.3823 0.779222 35.494 1.06043 35.4941H19.706C20.8334 36.2528 22.2849 36.0789 23.2264 35.4941H41.872C42.1532 35.494 42.4229 35.3823 42.6217 35.1834C42.8206 34.9846 42.9323 34.7149 42.9324 34.4337V4.35525C42.9323 4.07404 42.8206 3.80438 42.6217 3.60554C42.4229 3.40669 42.1532 3.29493 41.872 3.29482H41.2151V1.10355C41.2151 0.824744 41.1065 0.556916 40.9124 0.356751C40.7183 0.156586 40.454 0.0397935 40.1753 0.0310948C40.1753 0.0310948 39.0015 -0.00668558 37.2344 0.00104226C35.4682 0.0087701 33.1095 0.0615769 30.7396 0.242752C28.3698 0.423068 25.9922 0.723595 24.1036 1.27399C23.159 1.54876 22.3322 1.87805 21.6556 2.36404C21.5912 2.41041 21.5285 2.4615 21.4662 2.51259C21.4047 2.46103 21.3416 2.41149 21.2769 2.36404C20.6003 1.87805 19.7734 1.54919 18.8289 1.27399C16.9403 0.724025 14.5627 0.423497 12.1928 0.242752C9.82294 0.0615769 7.46423 0.0087701 5.69756 0.00104226ZM37.2297 1.07435C38.9771 1.06663 40.1418 1.10355 40.1418 1.10355V31.1563C40.1418 31.1563 23.8601 30.5234 21.7011 33.855C21.5512 34.0791 21.4018 34.0933 21.2524 33.8885C19.1796 30.5196 2.79061 31.1563 2.79061 31.1563V1.10355C2.79061 1.10355 3.95537 1.06748 5.70272 1.07521C10.9448 1.0984 21.4327 1.52171 21.4662 4.53814C21.4997 1.52171 31.9877 1.09754 37.2297 1.07435ZM2.12086 31.9952C2.32221 32.156 2.57472 32.2391 2.83225 32.2291C2.83225 32.2291 7.43375 32.0523 12.0108 32.3858C14.2991 32.5524 16.5839 32.8551 18.2008 33.3304C18.2459 33.3441 18.2845 33.3591 18.3287 33.3729H2.12129L2.12086 31.9952ZM40.8107 31.9952V33.3729H24.6033C24.6475 33.3591 24.6862 33.3441 24.7312 33.3308C26.3481 32.8551 28.6329 32.5524 30.9212 32.3858C35.4978 32.0523 40.1002 32.2291 40.1002 32.2291C40.3576 32.239 40.6095 32.1559 40.8107 31.9952Z" fill="black"/>
<path d="M37.2255 2.14869C35.4975 2.15642 33.1959 2.20751 30.9024 2.38267C28.609 2.55784 26.3203 2.86437 24.703 3.33534C23.8946 3.57061 23.2587 3.85568 22.9076 4.1077C22.5568 4.35928 22.5405 4.46189 22.5396 4.5499V9.58631C22.5589 9.576 22.5826 9.56484 22.5873 9.55625C22.5924 9.54586 22.5998 9.53676 22.609 9.52963C22.6181 9.52249 22.6288 9.51751 22.6401 9.51504C22.7066 9.50044 22.8045 9.56226 22.8616 9.67131C22.9316 9.8044 22.932 9.82716 22.8702 9.93749C22.8324 10.0045 22.7345 10.1049 22.653 10.1599C22.5997 10.1959 22.5735 10.2256 22.5396 10.2573V17.0626C22.6169 16.9346 22.6315 16.8024 22.5843 16.6131C22.537 16.425 22.5413 16.3975 22.6714 16.1369C22.7981 15.8823 22.9209 15.7098 23.1544 15.4595C23.207 15.3986 23.2385 15.3224 23.2441 15.2422C23.2441 15.1649 23.297 15.0598 23.3914 14.9494C23.6593 14.6369 23.6872 14.4574 23.4601 14.4978C23.3184 14.5235 23.3197 14.5334 23.3137 13.9955C23.3111 13.7722 23.3292 13.6554 23.3712 13.6134C23.409 13.5756 23.5567 13.5387 23.7546 13.5168L24.0766 13.4807V13.3128C24.0766 13.1102 23.9676 12.9368 23.8521 12.9574C23.7469 12.9763 23.6924 12.8535 23.7748 12.7831C23.8232 12.7496 23.8814 12.7332 23.9401 12.7367C24.0294 12.7431 24.0405 12.7311 24.0195 12.6504C23.9989 12.5714 24.0109 12.5568 24.0908 12.5632C24.1818 12.5701 24.3793 12.4302 24.3342 12.3907C24.3119 12.3713 23.9178 12.5049 23.7293 12.595C23.6262 12.6448 23.6258 12.6422 23.6958 12.5246C23.7499 12.434 23.7559 12.3915 23.7186 12.3512C23.6812 12.3104 23.6894 12.2795 23.7529 12.2181C23.8173 12.155 23.8216 12.1391 23.7705 12.1455C23.7241 12.1519 23.7362 12.121 23.8109 12.0425C23.9053 11.9437 23.9096 11.9248 23.8512 11.8737C23.7924 11.8231 23.7782 11.8265 23.7237 11.9051C23.6935 11.9477 23.6711 11.9954 23.6576 12.0459C23.6546 12.0747 23.6499 12.1395 23.6456 12.191C23.6413 12.2563 23.5872 12.3099 23.4644 12.3722C23.2338 12.4885 23.2154 12.4903 23.1888 12.3872C23.1759 12.3387 23.1853 12.2958 23.2098 12.2915C23.2347 12.2872 23.2424 12.237 23.227 12.1768C23.1905 12.0304 23.239 11.9064 23.3257 11.9261C23.3635 11.9347 23.3807 11.9283 23.3631 11.9132C23.3116 11.8682 23.4618 11.7029 23.5477 11.7115C23.6009 11.7162 23.6348 11.6866 23.6507 11.6192C23.6636 11.5642 23.6572 11.5221 23.6357 11.526C23.5928 11.5337 23.6293 11.2727 23.6902 11.137C23.7121 11.0877 23.7791 11.0409 23.8426 11.0297C23.9332 11.0134 23.9517 11.028 23.9332 11.1057C23.916 11.177 23.9306 11.1976 23.9929 11.1864C24.0873 11.1692 24.0981 11.2237 24.0298 11.3701C23.9955 11.444 23.9985 11.4861 24.0397 11.5311C24.1067 11.6037 24.1887 11.7334 24.2501 11.8656C24.275 11.9188 24.3252 11.9686 24.3625 11.9772C24.4132 11.9884 24.4226 12.0322 24.402 12.1541C24.375 12.3108 24.3771 12.3138 24.4776 12.2473C24.5347 12.209 24.6115 12.1077 24.6476 12.0206C24.6966 11.9034 24.7554 11.8446 24.8773 11.7909C25.019 11.7291 25.0409 11.7007 25.0409 11.5891C25.0409 11.5174 25.0224 11.462 24.9979 11.4663C24.9018 11.4835 24.9541 11.2053 25.0696 11.0898C25.1327 11.0263 25.1997 10.9717 25.2178 10.9683C25.2826 10.9567 25.295 11.2517 25.2336 11.3362C25.1134 11.502 25.1886 11.5955 25.3989 11.541C25.4642 11.5238 25.5299 11.529 25.5449 11.5518C25.5625 11.5788 25.6136 11.5646 25.69 11.511C25.875 11.38 26.0489 11.3152 26.0489 11.3779C26.0489 11.5024 26.2181 11.231 26.24 11.0705C26.2855 10.7382 26.322 10.5871 26.3606 10.5802C26.3821 10.5759 26.4392 10.5252 26.4873 10.466C26.5528 10.3921 26.6421 10.3435 26.7397 10.3286C26.8299 10.3119 26.932 10.2737 26.9677 10.244C27.0978 10.1346 26.8767 10.1492 26.6753 10.2629C26.4976 10.3638 26.4727 10.369 26.3748 10.3192C26.3164 10.2891 26.2662 10.2522 26.2662 10.2363L26.2447 9.98558C26.228 9.78637 26.2404 9.74387 26.3675 9.56913C26.6599 9.166 26.671 9.14496 26.6156 9.08486C26.5991 9.06867 26.5791 9.05638 26.5572 9.04888C26.5353 9.04138 26.512 9.03886 26.489 9.04149C26.407 9.05609 26.2941 9.28535 26.3374 9.35061C26.352 9.37336 26.273 9.49572 26.1623 9.62237C25.9098 9.91002 25.8459 10.117 25.9648 10.2548C26.0816 10.3896 26.067 10.633 25.9407 10.6558C25.9081 10.6613 25.8635 10.7815 25.8334 10.9498C25.7913 11.1817 25.7651 11.2375 25.696 11.2504C25.6488 11.2585 25.611 11.286 25.611 11.3113C25.611 11.3367 25.5711 11.3637 25.523 11.3723C25.4749 11.3809 25.4358 11.4092 25.4358 11.4345C25.4358 11.5105 25.3036 11.5097 25.274 11.4337C25.2577 11.3916 25.2761 11.3349 25.3212 11.2929C25.3916 11.2263 25.3912 11.207 25.3126 10.9769L25.2289 10.7322L25.0958 10.8726C24.8683 11.1134 24.7567 11.0731 24.7107 10.7343C24.6861 10.5571 24.6779 10.3781 24.6862 10.1994C24.6888 10.1663 24.7107 10.1479 24.7348 10.159C24.7588 10.1706 24.7794 10.1522 24.7794 10.1191C24.7798 10.0856 24.861 9.98257 24.9589 9.88898C25.11 9.74516 25.4105 9.28492 25.4148 9.19347C25.4174 9.12607 25.6295 8.68988 25.6621 8.68429C25.6819 8.68086 25.6982 8.65124 25.6982 8.61775C25.6982 8.58469 25.7334 8.51085 25.7754 8.45461C25.8175 8.39794 25.8781 8.29404 25.9098 8.22363C25.9416 8.15365 26.0348 8.04546 26.1176 7.98407C26.2005 7.92267 26.2687 7.85398 26.2687 7.83209C26.2687 7.81062 26.3138 7.79774 26.3701 7.80203C26.4654 7.81019 26.6161 7.67195 26.5856 7.60497C26.5791 7.59124 26.6182 7.56676 26.6727 7.55131C26.9969 7.45686 27.0583 7.456 27.1647 7.54229C27.2712 7.62773 27.2729 7.63588 27.1991 7.73506C27.1244 7.83595 27.1261 7.83595 27.2678 7.77842C27.3927 7.72819 27.4168 7.73248 27.4374 7.81148C27.4532 7.87158 27.4966 7.89734 27.564 7.88489C27.6207 7.87502 27.7323 7.91323 27.8113 7.9699C27.8907 8.02614 28.0105 8.0987 28.0779 8.13176C28.2969 8.23694 28.3183 8.47607 28.1243 8.64394C28.0341 8.72165 27.9912 8.73152 27.8122 8.71263C27.698 8.70061 27.5752 8.67313 27.5391 8.65253C27.4927 8.62591 27.4953 8.63836 27.5477 8.69331C27.5881 8.73624 27.622 8.83928 27.6177 8.92128C27.6134 9.08443 27.7297 9.23469 27.8426 9.21236C27.9023 9.20077 27.9006 9.1939 27.8349 9.16514C27.7928 9.14711 27.7585 9.08142 27.7585 9.0196C27.7585 8.8908 27.7885 8.87706 27.9088 8.95091C28.0307 9.02561 28.105 9.00114 28.0771 8.89466C28.044 8.76673 28.2724 8.49024 28.4033 8.50054C28.4965 8.50784 28.4991 8.49926 28.4737 8.26742C28.4592 8.13476 28.4278 8.00382 28.4042 7.97634C28.3729 7.94028 28.384 7.92267 28.4437 7.9128C28.703 7.86858 28.8528 8.01584 28.6987 8.16181C28.6575 8.20131 28.6352 8.25497 28.6523 8.28073C28.7009 8.35372 28.8009 8.31722 28.8301 8.21547C28.8558 8.12703 29.162 7.82994 29.2422 7.81534C29.2637 7.81148 29.3058 7.77327 29.3358 7.72991C29.3685 7.68485 29.4154 7.65205 29.4689 7.63674C29.5282 7.62644 29.541 7.64962 29.523 7.73077C29.5033 7.81878 29.5101 7.82651 29.5582 7.77112C29.601 7.72786 29.6554 7.69802 29.7149 7.68526C29.769 7.67581 29.8261 7.64361 29.8424 7.61356C29.8583 7.58351 29.9154 7.56204 29.9699 7.56633C30.0236 7.57063 30.0803 7.55947 30.0944 7.54143C30.1365 7.48992 30.0408 7.35124 29.9725 7.36369C29.9017 7.37614 29.842 7.2276 29.8849 7.14646C29.9043 7.10996 29.9463 7.1164 30.0082 7.16363C30.0597 7.20356 30.2013 7.2525 30.3211 7.27311C30.4413 7.29328 30.6161 7.36112 30.7092 7.42337C30.8732 7.53199 30.878 7.53242 30.8479 7.43196C30.8307 7.37486 30.7861 7.30831 30.7496 7.2847C30.7054 7.25593 30.6925 7.20141 30.711 7.12027C30.7264 7.05329 30.7161 6.9627 30.6869 6.91891C30.6423 6.85237 30.6526 6.80729 30.7522 6.63985C30.817 6.53038 30.8694 6.39686 30.8694 6.34319C30.8694 6.28952 30.896 6.21353 30.9273 6.17447C30.9635 6.12673 30.9924 6.07393 31.0132 6.01776C31.0291 5.97054 31.0707 5.9276 31.1051 5.92116C31.2004 5.90399 31.2266 6.02849 31.142 6.09547C31.0793 6.14527 31.0862 6.15171 31.1875 6.13497C31.2923 6.11779 31.3077 6.13325 31.3077 6.25561C31.3077 6.33289 31.2884 6.43807 31.2648 6.48959C31.2339 6.55528 31.2356 6.59134 31.2712 6.60808C31.3008 6.62182 31.3099 6.61323 31.294 6.58876C31.2785 6.56515 31.3099 6.48014 31.3635 6.399C31.4172 6.31829 31.455 6.21783 31.4481 6.17575C31.4412 6.13454 31.455 6.08345 31.479 6.06413C31.528 6.02334 31.6018 6.14012 31.5949 6.24745C31.5885 6.34705 31.6679 6.37625 31.7224 6.29468C31.8148 6.156 31.9461 6.13239 32.0702 6.23028C32.1359 6.28265 32.2097 6.32086 32.2363 6.31614C32.2625 6.31185 32.2346 6.26806 32.1728 6.21912C32.099 6.16073 32.0492 6.05984 32.0298 5.92889C31.9964 5.69792 31.9998 5.69491 32.3746 5.57899C32.6107 5.50601 32.6751 5.45062 32.5785 5.40555C32.509 5.37292 32.5261 5.16212 32.5996 5.14881C32.6382 5.14194 32.6541 5.11275 32.6386 5.07368C32.6215 5.02946 32.6408 5.0037 32.7009 4.99296C32.749 4.98438 32.7996 4.9466 32.8125 4.90925C32.8254 4.87147 32.9112 4.80149 33.0036 4.75297C33.0954 4.70489 33.1899 4.63663 33.2139 4.60142C33.2809 4.50396 33.4981 4.42669 33.5681 4.47477C33.6025 4.49881 33.6626 4.49581 33.7064 4.4679C33.7489 4.44128 33.833 4.41509 33.8931 4.41037C33.9816 4.40307 33.9919 4.39234 33.9476 4.35241C33.8643 4.27728 33.8819 4.2322 34.0013 4.21074C34.0786 4.197 34.1022 4.17295 34.0846 4.12745C34.0537 4.04888 34.222 3.72689 34.3383 3.64059C34.3524 3.63034 34.3681 3.62237 34.3847 3.61698C34.4138 3.60764 34.4447 3.60529 34.4748 3.61011C34.565 3.62428 34.6436 3.69512 34.623 3.78141C34.6088 3.84023 34.6234 3.86899 34.6637 3.86169C34.6985 3.85568 34.7389 3.88016 34.7526 3.91536C34.7685 3.95615 34.8368 3.97031 34.9372 3.95314C35.1776 3.91235 35.3464 4.05833 35.3717 4.3288C35.3923 4.55076 35.3683 4.59627 35.0454 4.94273C34.9733 5.02044 34.9729 5.02473 35.0544 5.02645C35.1017 5.02731 35.1566 5.04878 35.1746 5.07411C35.1978 5.10716 35.2197 5.09858 35.2506 5.04405C35.2876 4.97966 35.2987 4.98223 35.3206 5.06252C35.3421 5.14151 35.3653 5.14838 35.4468 5.10115C35.5825 5.02302 35.9096 5.05307 35.8796 5.14065C35.8646 5.18444 35.9079 5.20677 36.0114 5.20849C36.1994 5.21192 36.2587 5.1677 36.2587 5.02473C36.2587 4.87447 36.3205 4.83626 36.4742 4.8925C36.5459 4.91826 36.6416 4.93329 36.6872 4.92513C36.8477 4.89637 36.919 5.0316 36.9078 5.34329C36.8988 5.58457 36.9117 5.64081 36.9834 5.68289C37.0628 5.73011 37.0718 5.72153 37.1057 5.57556C37.1555 5.36132 37.2053 5.30938 37.2633 5.41327C37.3011 5.48068 37.3406 5.48926 37.4376 5.45191C37.5115 5.42315 37.5759 5.42186 37.5943 5.45019C37.6175 5.48497 37.6445 5.47724 37.6974 5.41714C37.7373 5.37249 37.7905 5.33557 37.8141 5.33557C37.8377 5.33642 37.8631 5.2995 37.8712 5.25399C37.8794 5.20806 37.8652 5.17371 37.8395 5.17843C37.8137 5.18273 37.7922 5.15568 37.7922 5.11833C37.7922 5.07969 37.83 5.0432 37.8764 5.03504C37.9223 5.02645 37.9678 4.99511 37.9768 4.96549C38.0026 4.88005 38.8364 4.94617 38.8874 5.03761C38.9102 5.07754 38.9175 5.12434 38.9033 5.14151C38.8896 5.15868 38.9291 5.17714 38.9922 5.1823C39.03 5.18573 39.0489 5.19775 39.0686 5.2102V2.16586C38.5843 2.15599 38.3302 2.14311 37.2255 2.14869ZM34.0271 3.51652C34.0773 3.5075 34.1061 3.52296 34.0915 3.55086C34.0558 3.61655 33.9369 3.63802 33.9369 3.57834C33.9369 3.55301 33.9777 3.5251 34.0271 3.51652ZM38.0649 3.66249C38.0983 3.66549 38.1486 3.68739 38.2323 3.73118C38.3405 3.78699 38.4783 3.82563 38.5388 3.81662C38.6573 3.79944 38.8509 3.83808 38.7792 3.86513C38.7552 3.87415 38.7943 3.88359 38.8664 3.8866C39.0115 3.89346 39.0386 3.98577 38.9235 4.08237C38.8303 4.16093 38.5388 4.07936 38.5388 3.97504C38.5388 3.87457 38.4719 3.90119 38.3392 4.05403C38.2752 4.12702 38.1709 4.19614 38.1069 4.2073C38.0425 4.21846 37.9279 4.25238 37.8519 4.28286C37.7343 4.32966 37.7021 4.3215 37.639 4.23134C37.5016 4.03686 37.6433 3.68181 37.809 3.69469C37.8354 3.69724 37.8605 3.70755 37.8811 3.72431C37.9528 3.77969 37.9648 3.77798 37.9987 3.70843C38.0151 3.67494 38.0314 3.65905 38.0649 3.66206M37.4861 3.86298C37.5102 3.85869 37.5308 3.91708 37.5308 3.99307C37.5308 4.06863 37.5102 4.13474 37.4861 4.13904C37.4621 4.14333 37.4428 4.08494 37.4428 4.00895C37.4428 3.93339 37.4621 3.86728 37.4861 3.86298ZM37.9717 4.39105C38.0163 4.39964 38.0554 4.46146 38.0288 4.51126C38.0168 4.53359 38.0434 4.54561 38.0885 4.53702C38.1915 4.51899 38.2752 4.58983 38.2752 4.69673C38.2752 4.76027 38.2426 4.78302 38.1327 4.79891C38.0602 4.80981 37.987 4.81412 37.9137 4.81179C37.8309 4.8032 37.8077 4.72464 37.8845 4.7109C37.9137 4.70575 37.9215 4.6538 37.9039 4.57394C37.8867 4.49538 37.8953 4.42926 37.9275 4.40307C37.9335 4.39798 37.9406 4.39429 37.9483 4.39229C37.9559 4.39028 37.9639 4.38958 37.9717 4.39105ZM30.8093 4.59884C30.8732 4.58124 30.9192 4.60829 30.9381 4.68342C30.9797 4.84871 30.896 4.96935 30.6131 5.1531C30.4598 5.25271 30.2945 5.40297 30.2138 5.51803L29.9893 5.84002C29.9412 5.90871 29.8416 6.11007 29.7677 6.28867C29.6162 6.65574 29.6188 6.86224 29.7763 7.00993C29.8257 7.05716 29.8515 7.11125 29.8304 7.12885C29.7806 7.17007 29.529 7.20699 29.4775 7.18037C29.4556 7.16964 29.4243 7.10653 29.408 7.03998C29.3882 6.95841 29.3496 6.92406 29.2916 6.93437C29.2276 6.94553 29.204 6.91848 29.204 6.83176C29.204 6.76522 29.2238 6.72314 29.2487 6.73473C29.2903 6.75491 29.3101 6.69051 29.2946 6.57374C29.2903 6.54068 29.3221 6.45267 29.365 6.37754C29.408 6.3024 29.438 6.21783 29.4324 6.18949C29.4264 6.16159 29.4638 6.0564 29.5153 5.95551C29.5681 5.85247 29.599 5.73441 29.5857 5.68375C29.5702 5.62493 29.587 5.58028 29.6351 5.55323C29.6754 5.53048 29.7995 5.39739 29.9103 5.25786C30.082 5.04234 30.1361 5.00155 30.2718 4.98137C30.3954 4.96291 30.4641 4.91826 30.5762 4.78388C30.6637 4.67956 30.7453 4.61645 30.8093 4.59927M26.3692 4.88349C26.4454 4.87351 26.5226 4.89234 26.5856 4.93629L26.6787 5.011L26.5761 5.14409C26.4774 5.27245 26.322 5.35446 26.3786 5.24927C26.3932 5.22136 26.3683 5.20505 26.3228 5.21321C26.2571 5.2248 26.24 5.19475 26.2443 5.06638C26.2468 4.9217 26.2597 4.90324 26.3692 4.88349ZM26.0047 4.96162C26.0605 4.95991 26.0936 4.96506 26.0936 4.97837C26.0932 4.99095 26.0887 5.00306 26.0807 5.01278C26.0727 5.0225 26.0616 5.02927 26.0494 5.03203C26.0253 5.03633 26.0056 5.06981 26.0056 5.10673C26.0056 5.14366 25.9721 5.29478 25.9309 5.44204C25.8514 5.72668 25.7617 5.80095 25.7162 5.61978C25.7012 5.55967 25.6642 5.51459 25.6333 5.52017C25.5616 5.53305 25.5118 5.34716 25.5737 5.29607C25.6029 5.27202 25.6046 5.25399 25.578 5.24841C25.5543 5.24326 25.5209 5.19475 25.5041 5.14108C25.4741 5.0462 25.4826 5.04148 25.7832 4.98738V4.98824C25.872 4.97279 25.9493 4.96334 26.0047 4.96162ZM34.9261 5.2072C34.9291 5.19646 34.9158 5.1999 34.8866 5.21664C34.8423 5.24111 34.7878 5.2643 34.7659 5.26816C34.7436 5.27245 34.7256 5.30594 34.7256 5.34372C34.7256 5.43388 34.7363 5.43002 34.8612 5.29006C34.8861 5.26521 34.9081 5.23738 34.9261 5.2072ZM32.2866 6.56215C32.2748 6.5898 32.2672 6.61901 32.2638 6.64887C32.2475 6.73473 32.2531 6.76479 32.281 6.73087C32.3057 6.69057 32.3149 6.64263 32.3068 6.59606C32.3003 6.56558 32.2939 6.55399 32.2866 6.56215ZM31.3313 6.6991C31.3154 6.71842 31.3086 6.8133 31.3081 6.98975C31.3073 7.33493 31.3704 7.50537 31.4464 7.36498C31.4679 7.32548 31.4541 7.30058 31.4103 7.29844C31.3519 7.29586 31.3446 7.24949 31.3661 7.03011C31.3803 6.88457 31.3725 6.73817 31.3498 6.70468C31.3425 6.69438 31.3369 6.69309 31.3313 6.6991ZM31.3944 7.52426C31.3704 7.52855 31.3507 7.57149 31.3507 7.62043C31.3507 7.66937 31.3313 7.72647 31.3073 7.74622C31.2635 7.78228 31.245 7.91795 31.2845 7.91065C31.2961 7.90851 31.3348 7.84067 31.3717 7.75953C31.4494 7.58866 31.4563 7.5131 31.3944 7.52426ZM28.9971 7.55775C29.0177 7.55431 29.04 7.56848 29.0787 7.59767C29.1559 7.65778 29.1559 7.66765 29.0873 7.75867C29.0125 7.85913 28.9344 7.89391 28.8829 7.84926C28.8335 7.80633 28.8498 7.7123 28.9241 7.62172C28.9567 7.58136 28.9765 7.56075 28.9971 7.55732M31.1939 7.95401C31.1724 7.95534 31.1514 7.96104 31.1321 7.97076C31.084 7.99222 31.0441 8.01798 31.0441 8.02743C31.0441 8.0373 31.0836 8.03773 31.1321 8.02915C31.1802 8.02056 31.2193 7.9948 31.2193 7.97248C31.2193 7.96088 31.2098 7.95444 31.1939 7.95401ZM38.9454 8.25411C38.9214 8.25197 38.8801 8.26442 38.8123 8.29018C38.7217 8.32452 38.547 8.36788 38.4238 8.3872C38.2014 8.42241 38.1984 8.42541 37.9678 8.75127C37.8399 8.93159 37.675 9.14625 37.6003 9.22825C37.5003 9.33859 37.4844 9.37465 37.5385 9.36563C37.5901 9.36291 37.6409 9.38013 37.6802 9.41372C37.718 9.44678 37.7497 9.4515 37.7497 9.42445C37.7497 9.35147 37.906 9.3373 37.9687 9.40513C38.0404 9.48327 38.161 9.4618 38.1275 9.3768C38.1129 9.33902 38.1275 9.3081 38.1619 9.30209C38.2319 9.28964 38.2744 9.4223 38.2744 9.655C38.2744 9.74687 38.3053 9.90401 38.3418 10.0058C38.4156 10.2127 38.401 10.2672 38.2911 10.1917C38.2233 10.1449 38.2194 10.1595 38.2443 10.3788C38.2598 10.5136 38.2546 10.6098 38.2327 10.5995C38.2113 10.5892 38.1803 10.606 38.164 10.6364C38.1159 10.7262 38.3212 10.8863 38.4195 10.8356C38.4796 10.8052 38.4955 10.8107 38.4723 10.8541C38.4538 10.8884 38.4658 10.9288 38.498 10.9443C38.5423 10.9644 38.5281 10.9876 38.4422 11.037C38.3791 11.0735 38.3139 11.1302 38.2971 11.1619C38.2791 11.1954 38.2198 11.216 38.1572 11.2109C38.0593 11.2023 38.0524 11.2109 38.0842 11.3002C38.1331 11.4384 38.1228 11.635 38.049 11.9132C37.9975 12.1086 37.9631 12.1631 37.8571 12.2151C37.7753 12.2561 37.6955 12.3009 37.6179 12.3494C37.5578 12.3881 37.4887 12.4259 37.4647 12.4353C37.3243 12.4842 37.1354 12.6409 37.0946 12.7418C37.0418 12.8732 36.9606 12.8655 36.9606 12.729C36.9606 12.68 36.9409 12.6431 36.9168 12.6474C36.8293 12.6628 36.8761 12.5547 37.0371 12.3713C37.1538 12.2374 37.2423 12.1756 37.3444 12.1575C37.4548 12.1374 37.5003 12.1034 37.5385 12.0081C37.5707 11.9283 37.6231 11.878 37.6888 11.8664C37.8244 11.842 37.8863 11.693 37.8863 11.3899C37.8863 11.1988 37.9073 11.1151 37.9734 11.0387C38.0481 10.9528 38.0644 10.8584 38.0842 10.3776C38.1001 9.98987 38.0928 9.81857 38.0597 9.82458C38.0339 9.82887 38.012 9.90615 38.012 9.99545C38.012 10.2251 37.8978 10.4892 37.596 10.9571C37.4264 11.2207 37.2882 11.3307 37.162 11.3019C37.0972 11.2877 36.9602 11.4393 36.9602 11.526C36.9602 11.5539 36.91 11.6273 36.8486 11.6891L36.7357 11.8016L36.8288 11.9184C36.8919 11.9957 36.9181 12.0871 36.9087 12.1902C36.8967 12.3215 36.8705 12.3567 36.7309 12.4323L36.5665 12.5212L36.5605 12.3529C36.556 12.2771 36.556 12.2011 36.5605 12.1253C36.5648 12.0931 36.5395 12.0841 36.5047 12.1047C36.4154 12.1562 36.3759 12.0734 36.4321 11.9536C36.4729 11.8673 36.4665 11.8549 36.3888 11.869C36.339 11.8776 36.2492 11.9274 36.1891 11.9798C36.0539 12.097 36.0226 12.0742 36.0809 11.9034L36.1252 11.7716L35.9534 11.9317C35.7946 12.0798 35.7873 12.097 35.8513 12.1597C35.895 12.2026 35.938 12.2095 35.9685 12.1773C36.0264 12.1172 36.2578 12.1146 36.2578 12.1743C36.2578 12.197 36.2218 12.2361 36.1797 12.2601C36.1224 12.298 36.0706 12.3435 36.0256 12.3954C35.95 12.4825 35.9513 12.4954 36.0741 12.6925C36.1672 12.8414 36.1917 12.92 36.1621 12.981C36.1368 13.0342 36.1385 13.0621 36.1664 13.057C36.2776 13.0372 35.9311 13.6838 35.7229 13.8856C35.6435 13.9624 35.4593 14.0805 35.3137 14.1487C35.0828 14.2574 35.0484 14.2883 35.0403 14.393C35.0231 14.6115 34.8419 14.7605 34.7814 14.606C34.7634 14.56 34.7891 14.4973 34.8544 14.4308C34.9102 14.3733 34.9437 14.3166 34.9295 14.3042C34.8806 14.2612 34.702 14.3707 34.6444 14.4785C34.5929 14.5751 34.6049 14.6021 34.7655 14.7558C34.9183 14.9031 34.9432 14.955 34.9432 15.1349C34.9432 15.3186 34.9282 15.353 34.8222 15.4208C34.7532 15.4658 34.6929 15.523 34.6444 15.5895C34.5671 15.7123 34.4611 15.7248 34.4611 15.611C34.4611 15.5595 34.4323 15.5251 34.3946 15.5316C34.3755 15.5343 34.356 15.5307 34.3392 15.5213C34.3224 15.512 34.3091 15.4973 34.3014 15.4796C34.2877 15.444 34.2486 15.4195 34.2155 15.426C34.1816 15.432 34.155 15.4049 34.155 15.3672C34.155 15.3294 34.1344 15.3028 34.1103 15.3071C34.0601 15.3156 34.0515 15.7299 34.1005 15.7922C34.1176 15.8149 34.1846 15.8579 34.2477 15.8888C34.2821 15.908 34.3121 15.9341 34.3359 15.9654C34.3598 15.9968 34.377 16.0326 34.3864 16.0708C34.3993 16.1395 34.4238 16.2391 34.4409 16.2928C34.4658 16.3718 34.4551 16.3937 34.3851 16.4061C34.2546 16.4293 34.0794 16.2636 34.0266 16.0674C34.0009 15.9712 33.9494 15.8725 33.9133 15.8476C33.8691 15.8175 33.8497 15.7231 33.854 15.5569C33.8575 15.3895 33.8377 15.292 33.7909 15.2517C33.7478 15.2112 33.7148 15.1612 33.6943 15.1057C33.6643 15.0121 33.6063 15.0018 33.563 15.0829C33.5479 15.1109 33.4973 15.1409 33.4505 15.1491C33.3844 15.1611 33.3659 15.1319 33.3659 15.0194C33.3595 14.9216 33.324 14.8279 33.2642 14.7502C33.2118 14.688 33.1674 14.6195 33.1319 14.5463C33.1092 14.4862 33.0877 14.481 33.0448 14.5261C33.0134 14.5592 32.9246 14.6017 32.8473 14.6219C32.77 14.6416 32.709 14.6837 32.709 14.7159C32.709 14.7476 32.6489 14.8172 32.5768 14.8691C32.5047 14.9211 32.4459 14.9803 32.4459 15.0018C32.4459 15.0233 32.3488 15.128 32.2312 15.2336C32.0208 15.4217 32.0174 15.4328 32.0217 15.6544C32.0238 15.8081 32.05 15.9025 32.1037 15.9493C32.2539 16.0798 32.1917 16.3834 32.0084 16.4164C31.9457 16.4276 31.9165 16.2043 31.9663 16.0974C32.0427 15.9343 31.9792 15.939 31.859 16.1052C31.7628 16.2383 31.7431 16.2494 31.6894 16.1983C31.5803 16.0944 31.2588 15.3126 31.2519 15.1349C31.2459 14.9803 31.2347 14.9662 31.1429 15.0009C31.039 15.04 30.8681 14.9511 30.8681 14.8567C30.8672 14.8292 30.8157 14.7644 30.753 14.7133C30.6513 14.63 30.5985 14.627 30.2499 14.682C30.0155 14.7193 29.8334 14.7262 29.7948 14.6991C29.7415 14.6622 29.7291 14.6678 29.7291 14.7292C29.7291 14.7704 29.7982 14.8262 29.8828 14.8533C30.0614 14.9108 30.0863 15.0533 29.948 15.2229C29.9 15.2822 29.8609 15.3448 29.8609 15.3629C29.8609 15.4247 29.5763 15.702 29.4985 15.7162C29.456 15.7235 29.3878 15.7772 29.3466 15.8351C29.3054 15.8931 29.2521 15.9446 29.2268 15.9493C29.2019 15.9536 29.1306 15.9944 29.0684 16.0395C28.9529 16.1154 28.8331 16.1843 28.7094 16.246C28.4961 16.3546 28.4699 16.3799 28.5107 16.4413C28.5527 16.504 28.5837 16.5019 28.7824 16.4177C28.9056 16.3662 29.0495 16.3014 29.1019 16.2743C29.3766 16.1339 29.0782 16.9441 28.7043 17.3536L28.4823 17.5975L28.4102 17.6563L28.302 17.8023C28.1144 18.0539 28.0642 18.1981 28.0865 18.4252C28.0981 18.5416 28.1221 18.6584 28.1402 18.6845C28.1582 18.7103 28.1762 18.8606 28.1805 19.0181C28.187 19.2744 28.1754 19.3157 28.0758 19.4157C28.0144 19.4771 27.9431 19.5316 27.9161 19.5372C27.8894 19.5428 27.813 19.6158 27.746 19.699C27.6516 19.8171 27.6318 19.8708 27.6597 19.9446C27.7207 20.1073 27.6722 20.3439 27.5623 20.416C27.5035 20.4547 27.4524 20.5405 27.4365 20.6255C27.4064 20.7908 27.0922 21.3227 26.9359 21.4743C26.8423 21.5653 26.3434 21.7585 26.115 21.7929C26.0073 21.8092 25.9064 21.6898 25.933 21.5773C25.954 21.4893 25.8201 21.1798 25.7141 21.0725C25.6806 21.0381 25.626 20.872 25.5943 20.7032C25.5372 20.4006 25.4333 20.1494 25.3478 20.109C25.2517 20.064 25.3307 19.6033 25.4668 19.4131C25.4859 19.3872 25.4989 19.3572 25.5047 19.3255C25.5105 19.2938 25.509 19.2612 25.5002 19.2302C25.4811 19.168 25.4668 19.1044 25.4573 19.04C25.435 18.8627 25.3457 18.6936 25.1929 18.5437C25.1091 18.4617 25.04 18.3643 25.04 18.3265C25.04 18.3231 25.0336 18.3222 25.0336 18.3196L25.0426 18.317L25.0744 18.2054L25.1044 18.0328C25.1396 17.8315 25.0808 17.7765 24.9018 17.8426C24.8125 17.8753 24.7678 17.8624 24.7137 17.7855C24.6309 17.6675 24.5055 17.6791 24.2672 17.8276C24.1736 17.8856 23.9796 17.9607 23.8353 17.9933C23.7194 18.0196 23.6036 18.0465 23.488 18.074C23.3772 18.1015 22.9376 17.8607 22.8925 17.7478C22.8732 17.6992 22.7865 17.6005 22.6998 17.5288C22.613 17.4575 22.5431 17.3635 22.5431 17.3193C22.5431 17.3129 22.5396 17.3073 22.5388 17.3008V29.54C22.589 29.5228 22.6633 29.4739 22.7174 29.4198C22.7775 29.3597 22.8578 29.3047 22.896 29.2974C22.9342 29.2901 22.9926 29.2266 23.0261 29.1549C23.1149 28.9647 23.3313 28.7496 23.4253 28.7586C23.4691 28.7629 23.5168 28.7453 23.5301 28.72C23.5434 28.6942 23.6172 28.6633 23.6941 28.6496C23.7714 28.6359 23.9036 28.5753 23.9877 28.5165C24.1144 28.4272 24.138 28.3868 24.1277 28.2847C24.1178 28.1859 24.1346 28.1572 24.2058 28.1447C24.2548 28.1361 24.2938 28.1559 24.2938 28.1889C24.2938 28.222 24.3218 28.2834 24.3557 28.325C24.4098 28.3924 24.4776 28.3911 24.9468 28.3091C25.2388 28.2576 25.4779 28.2018 25.4779 28.1833C25.4779 28.1649 25.529 28.1052 25.5917 28.0507C25.699 27.958 25.7093 27.9558 25.748 28.0215C25.7746 28.0666 25.8459 28.0825 25.9506 28.0649C26.0399 28.0503 26.1824 28.0511 26.267 28.0674C26.4671 28.1061 26.735 28.0756 26.7698 28.0095C26.7852 27.9811 26.8419 27.9498 26.8964 27.9399C26.9514 27.9305 27.0437 27.8605 27.1021 27.7849C27.1828 27.6806 27.2369 27.6488 27.3283 27.6518C27.3944 27.6536 27.4485 27.6411 27.4442 27.6231C27.4172 27.441 27.5121 27.4187 27.6889 27.5673C27.862 27.712 28.0358 27.7089 28.0556 27.5604C28.0633 27.5016 28.123 27.4153 28.1895 27.3672C28.2576 27.318 28.3186 27.2596 28.3707 27.1938C28.4506 27.0787 28.7923 26.8512 28.8473 26.8769C28.8709 26.8881 28.9082 26.8597 28.931 26.8129C28.9563 26.7614 28.9997 26.7344 29.0447 26.7443C29.0971 26.7558 29.1143 26.74 29.1049 26.6854C29.0894 26.5906 29.3058 26.4356 29.4934 26.4072C29.657 26.3823 29.8725 26.4802 29.8433 26.5661C29.8137 26.6511 30.234 26.6906 30.6994 26.6455C31.0424 26.6125 31.0823 26.6185 31.1253 26.7099C31.1673 26.7992 31.1836 26.8018 31.2618 26.737C31.3412 26.6708 31.3687 26.6777 31.5065 26.8065C31.637 26.928 31.6752 26.9422 31.7473 26.8885C31.7946 26.8537 31.8212 26.8052 31.8062 26.782C31.7675 26.7236 31.9483 26.5008 32.0822 26.4416C32.1428 26.415 32.1805 26.3823 32.1659 26.3695C32.1513 26.3566 32.1612 26.3145 32.1887 26.275C32.226 26.2205 32.2248 26.1775 32.1818 26.1011C32.1376 26.0196 32.1376 25.9831 32.1818 25.9191C32.2303 25.8491 32.2458 25.8491 32.3093 25.9157C32.4025 26.0135 32.521 26.008 32.7009 25.8972C32.8344 25.8156 32.8503 25.8148 32.9095 25.8929C32.9653 25.9672 33.004 25.9689 33.2032 25.9101C33.481 25.8276 33.5419 25.7718 33.5419 25.5997C33.5419 25.4889 33.5604 25.4644 33.6535 25.4481C33.7145 25.437 33.7742 25.4554 33.7875 25.4889C33.8261 25.5877 33.9429 25.5877 34.0301 25.4898C34.0932 25.4185 34.1237 25.4095 34.1735 25.4438C34.2228 25.4782 34.2447 25.4704 34.2739 25.4103C34.3237 25.3077 34.48 25.3258 34.5474 25.4413C34.5762 25.4906 34.6659 25.5524 34.747 25.5778C34.8896 25.6233 34.899 25.6199 35.0789 25.4614C35.3 25.2661 35.3438 25.2545 35.4185 25.367C35.4503 25.4142 35.5031 25.4357 35.5374 25.4159C35.5563 25.4064 35.5775 25.4026 35.5986 25.4049C35.6196 25.4072 35.6395 25.4155 35.6559 25.4288C35.7268 25.4902 35.8985 25.5078 35.9788 25.4614C36.0123 25.4417 36.0397 25.3661 36.0397 25.2927C36.0397 25.1351 36.0925 25.1128 36.1788 25.2343C36.2286 25.3034 36.2591 25.3095 36.3222 25.2609C36.4184 25.188 36.6949 25.2133 36.7284 25.2987C36.767 25.3975 36.8653 25.3378 36.8937 25.1983C36.9194 25.0677 36.9284 25.0617 37.1298 25.0463C37.3307 25.0308 37.3427 25.0235 37.3964 24.878C37.4282 24.7921 37.4642 24.7496 37.4908 24.7492C37.5153 24.7505 37.5312 24.7943 37.5158 24.8823C37.4994 24.9742 37.5183 25.0033 37.6098 25.024C37.7399 25.0523 38.0357 25.0682 38.2928 25.0596C38.5092 25.0527 38.5483 25.0712 38.5169 25.1626C38.4998 25.212 38.5345 25.2442 38.6234 25.2635C38.6955 25.279 38.7548 25.3082 38.7548 25.3279C38.7548 25.3477 38.8724 25.3434 39.0158 25.318C39.0399 25.3137 39.0472 25.3159 39.0678 25.3129V19.423C38.9926 19.599 38.9321 19.7694 38.9321 19.8162C38.9321 19.8789 38.9042 19.9176 38.8505 19.927C38.8054 19.9352 38.7183 19.9914 38.6569 20.0528C38.5324 20.1782 38.5221 20.1829 38.4757 20.143C38.4577 20.1271 38.3551 20.1275 38.2477 20.1434C38.0335 20.1756 37.8936 20.1022 37.8721 19.9472C37.8622 19.8755 37.812 19.8476 37.6759 19.8373C37.4973 19.8244 37.42 19.7926 37.42 19.7308C37.4196 19.6535 37.2766 19.5368 37.1577 19.5153C36.9825 19.4844 36.3905 19.7141 36.3905 19.8132C36.3905 19.8321 36.3003 19.8776 36.19 19.9128C36.0797 19.9485 35.9345 20.0206 35.868 20.0738C35.7624 20.158 35.7298 20.1657 35.6207 20.1301C35.5039 20.0923 35.4949 20.0691 35.4906 19.8141C35.4876 19.6394 35.4537 19.4767 35.3975 19.3672C35.3335 19.2418 35.312 19.1225 35.321 18.9327C35.3352 18.6378 35.3597 18.5686 35.443 18.5871C35.4743 18.5944 35.525 18.563 35.5559 18.5184C35.5868 18.4737 35.6426 18.4317 35.6791 18.4252C35.7156 18.4188 35.8208 18.3763 35.9139 18.3308C36.047 18.2651 36.0986 18.2063 36.1565 18.0599C36.1969 17.9568 36.2458 17.8796 36.2647 17.8886C36.2836 17.8976 36.3527 17.8328 36.418 17.7443C36.5347 17.5863 36.709 17.5082 36.7627 17.5893C36.8069 17.6567 36.8464 17.628 36.9254 17.4687C36.9662 17.3854 37.0319 17.312 37.0705 17.3051C37.1135 17.2974 37.1272 17.2734 37.1092 17.2455C37.0869 17.212 37.1148 17.2008 37.2053 17.2085C37.2941 17.2146 37.3831 17.2127 37.4715 17.2029C37.6574 17.1798 37.6793 17.2098 37.602 17.3807C37.5368 17.5249 37.5368 17.5258 37.7321 17.6147C37.8395 17.6636 37.9442 17.7005 37.964 17.6967C38.0082 17.6889 38.0558 17.452 38.0558 17.2416C38.0558 17.1579 38.0889 17.0488 38.1293 16.999C38.1413 16.9823 38.1555 16.9672 38.1713 16.9539C38.1799 16.9479 38.1872 16.9454 38.1941 16.9479C38.2147 16.9548 38.231 17.0037 38.2619 17.1098C38.2963 17.2274 38.3469 17.3064 38.3834 17.3C38.4392 17.2901 38.5371 17.5267 38.5371 17.6722C38.5371 17.7023 38.5964 17.7529 38.6685 17.7847C38.741 17.8165 38.8003 17.8564 38.8003 17.8736C38.8003 17.8907 38.8497 17.9448 38.9093 17.9938C38.9694 18.0423 39.0188 18.1011 39.0192 18.1251C39.0192 18.1354 39.0523 18.1664 39.0678 18.1882V16.3464C39.0111 16.3848 38.9465 16.4097 38.8789 16.4194C38.6513 16.4418 38.6384 16.5354 38.8454 16.6727C38.9402 16.7358 39.0077 16.8058 38.9956 16.829C38.9544 16.9059 38.6934 16.8655 38.5478 16.759C38.377 16.6345 38.3375 16.6354 38.2752 16.7685C38.2203 16.8857 38.0468 16.9316 37.9704 16.8479C37.9352 16.8101 37.8742 16.8071 37.7901 16.8393C37.6484 16.8947 37.6372 16.8775 37.7162 16.7307C37.7566 16.6534 37.7566 16.6216 37.7162 16.5864C37.6596 16.5375 37.3693 16.4727 37.2749 16.4886C37.2088 16.4993 37.1397 16.44 37.0551 16.3005C37.0061 16.2189 37.0061 16.1953 37.0551 16.1537C37.0808 16.1485 37.1225 16.1331 37.1676 16.1211H37.1684C37.2104 16.1077 37.2545 16.1023 37.2985 16.1052L37.3028 16.1043V16.1052C37.3333 16.1065 37.3775 16.1554 37.4007 16.2159L37.4436 16.3258L37.566 16.2134L37.6875 16.0992L38.0365 16.1537C38.2383 16.185 38.4289 16.2481 38.4882 16.3022C38.5706 16.3774 38.617 16.3851 38.723 16.3417C38.796 16.3117 38.8806 16.2795 38.9102 16.2696C38.9402 16.2597 38.9982 16.2104 39.039 16.1597C39.0506 16.1455 39.0575 16.1468 39.0678 16.1361V8.34126C39.0064 8.35758 38.9763 8.35157 38.9763 8.30348C38.9763 8.27214 38.9694 8.25626 38.9454 8.25411ZM27.2064 9.92376C27.1656 9.93105 27.1647 9.95724 27.2021 10.0337C27.245 10.1221 27.3639 10.1251 27.3639 10.038C27.3639 9.98644 27.2635 9.91345 27.2064 9.92376ZM38.96 10.454C38.969 10.4561 38.9759 10.4643 38.9759 10.4789C38.9759 10.5038 38.9454 10.5416 38.9072 10.5639C38.8643 10.5883 38.8445 10.5823 38.8552 10.5467C38.8716 10.4926 38.9312 10.4475 38.96 10.454ZM38.7638 10.5712C38.8333 10.5587 38.7835 10.6682 38.6775 10.7609C38.6217 10.8095 38.5818 10.8249 38.5818 10.797C38.5818 10.7352 38.7058 10.5815 38.7638 10.5712ZM26.483 10.6734C26.4768 10.6705 26.4699 10.6695 26.4632 10.6706C26.4564 10.6717 26.4502 10.6747 26.4452 10.6794C26.4177 10.7021 26.4216 10.7446 26.4559 10.7961C26.5143 10.8824 26.5564 10.8185 26.5139 10.7094C26.5085 10.694 26.4975 10.6808 26.483 10.6734ZM26.0275 10.7781C26.106 10.7639 26.1142 10.861 26.0408 10.9507C25.9661 11.0426 25.9038 11.043 25.9352 10.9516C25.9497 10.9086 25.9622 10.855 25.9622 10.8313C25.9622 10.8086 25.9914 10.7841 26.0275 10.7781ZM30.076 12.097C30.0476 12.1023 30.021 12.1147 29.9987 12.1331C29.8867 12.2163 29.8755 12.3735 29.9815 12.3795C30.0743 12.3846 30.0601 12.3975 30.1159 12.2739C30.1674 12.1618 30.1421 12.0893 30.0768 12.097H30.076ZM29.3277 12.1206C29.2899 12.1115 29.2505 12.1121 29.213 12.1223C29.0791 12.1524 28.8747 12.3142 28.8357 12.4216C28.7987 12.5229 28.8872 12.744 29.0302 12.908C29.1057 12.9947 29.1478 13.0694 29.1225 13.0737C29.0971 13.078 29.0538 13.1299 29.0259 13.1888C28.9829 13.2806 28.9937 13.3073 29.1014 13.3807C29.1701 13.4279 29.2517 13.4511 29.2843 13.4335C29.3154 13.4162 29.3486 13.4029 29.3831 13.394C29.4432 13.3837 29.4316 13.1892 29.3659 13.0973C29.3337 13.0531 29.3041 12.9518 29.2993 12.8719C29.2942 12.7826 29.2401 12.6766 29.1594 12.5984C29.0735 12.5147 29.046 12.4606 29.0821 12.4417C29.1267 12.4133 29.1664 12.378 29.1997 12.337C29.221 12.3141 29.2466 12.2958 29.2751 12.283C29.3035 12.2701 29.3343 12.2631 29.3655 12.2623C29.4633 12.2644 29.4663 12.2589 29.4075 12.1781C29.3883 12.1504 29.3601 12.1301 29.3277 12.1206ZM27.8203 12.404C27.7933 12.4058 27.7668 12.413 27.7426 12.4253C27.7185 12.4375 27.697 12.4545 27.6795 12.4752C27.613 12.5568 27.6168 12.5611 27.7246 12.5422C27.789 12.5306 27.8534 12.4984 27.868 12.4701C27.8924 12.4246 27.8637 12.4027 27.8203 12.404ZM27.3197 12.5564C27.2725 12.5577 27.2145 12.5778 27.1888 12.6143C27.163 12.6513 27.0956 12.7861 27.0385 12.9136C26.9484 13.1171 26.9432 13.1536 26.9994 13.2021C27.0802 13.2725 27.23 13.2441 27.3399 13.1377C27.4498 13.0308 27.646 12.9969 27.7297 13.0698C27.804 13.1342 28.0968 13.0952 28.1968 13.0076C28.2514 12.9595 28.2363 12.9312 28.1088 12.8402C27.8641 12.6646 27.7267 12.6298 27.6048 12.7101C27.5219 12.7642 27.4863 12.765 27.4296 12.7157C27.3906 12.6817 27.3695 12.6332 27.3824 12.6083C27.4022 12.5718 27.3665 12.5551 27.3197 12.5568M29.3925 12.8127C29.3848 12.8178 29.3796 12.8286 29.3796 12.8419C29.3796 12.8689 29.3994 12.8865 29.4234 12.8822C29.4475 12.8779 29.4672 12.8659 29.4672 12.8548C29.4672 12.8436 29.4475 12.8247 29.4234 12.8135C29.4114 12.808 29.4002 12.8075 29.3925 12.8127ZM25.4917 12.9436C25.4844 12.9458 25.4749 12.9672 25.4582 13.0115C25.4346 13.0737 25.4431 13.1175 25.4848 13.1437C25.5191 13.1656 25.5818 13.2347 25.6248 13.2974C25.6677 13.3601 25.7218 13.3961 25.745 13.3768C25.7681 13.3579 25.7986 13.3712 25.8128 13.4069C25.827 13.4434 25.8746 13.4786 25.9184 13.485C25.9987 13.4979 26.0708 13.6121 26.03 13.6619C26.018 13.6769 25.9755 13.6662 25.9356 13.6387C25.8699 13.5936 25.8656 13.5971 25.8927 13.6821C25.9141 13.749 25.8961 13.8109 25.8325 13.8881C25.7832 13.9491 25.7432 14.0182 25.7432 14.0418C25.7432 14.1286 25.6552 14.1535 25.5226 14.1058C25.3637 14.0478 25.3723 13.9508 25.5385 13.9178C25.7372 13.8791 25.7806 13.7778 25.6449 13.6705C25.5805 13.6189 25.5093 13.5807 25.4865 13.5846C25.4393 13.5932 25.1946 13.3541 25.1619 13.2682C25.1448 13.2223 25.1027 13.2381 24.9687 13.3399C24.8442 13.4343 24.7764 13.4614 24.7219 13.4391C24.6283 13.4009 24.56 13.4537 24.56 13.564C24.56 13.6099 24.4913 13.7143 24.4068 13.7971C24.3097 13.8916 24.2531 13.9869 24.2531 14.0539C24.2531 14.2097 24.0697 14.4256 23.8967 14.4737C23.8156 14.4965 23.749 14.5356 23.749 14.5609C23.749 14.6433 24.038 14.5733 24.1869 14.4544C24.3295 14.3406 25.122 14.0912 25.25 14.1195C25.3165 14.135 25.3234 14.4235 25.2585 14.4772C25.1881 14.5356 25.3504 14.6158 25.4908 14.5931C25.5657 14.5843 25.6411 14.6049 25.7012 14.6506C25.8471 14.7777 26.0936 14.8142 26.0936 14.7086C26.0936 14.5527 26.3576 14.3758 26.4675 14.4587C26.4907 14.4759 26.6221 14.5068 26.7586 14.5257C26.9466 14.5523 27.0441 14.542 27.1596 14.4879C27.2446 14.448 27.3287 14.4321 27.3498 14.4501C27.4146 14.5068 27.5881 14.3969 27.6306 14.2724C27.6529 14.2071 27.6709 14.0706 27.6709 13.9697C27.6709 13.7997 27.6632 13.7898 27.5722 13.8383C27.5137 13.8682 27.4508 13.8882 27.3858 13.8976C27.3378 13.9019 27.2463 13.9148 27.1819 13.9263C27.0102 13.9564 26.8385 13.9075 26.8385 13.8276C26.8385 13.789 26.817 13.7615 26.7895 13.7662C26.7637 13.7709 26.7509 13.7323 26.7637 13.6791C26.7762 13.6262 26.7702 13.5855 26.7504 13.5889C26.7307 13.5928 26.726 13.552 26.7384 13.4996C26.7564 13.4253 26.7397 13.4073 26.6654 13.4206C26.6126 13.43 26.5826 13.4554 26.5976 13.4786C26.6126 13.5013 26.5942 13.5378 26.5564 13.5601C26.4752 13.6069 26.4649 13.7164 26.5405 13.7293C26.6118 13.7413 26.4894 14.0272 26.4074 14.041C26.3361 14.053 26.2237 13.9216 26.2237 13.8237C26.2232 13.7847 26.1846 13.707 26.1374 13.652C26.0901 13.5975 26.0511 13.5073 26.0511 13.4515C26.0502 13.3841 25.9841 13.315 25.8523 13.2437C25.7437 13.1849 25.6548 13.1076 25.6548 13.072C25.6548 13.0346 25.6295 13.0218 25.5938 13.0424C25.5573 13.0638 25.5239 13.0454 25.5123 12.9981C25.5037 12.9608 25.4985 12.9432 25.4917 12.9436ZM25.0975 13.388C25.1941 13.3506 25.2006 13.8903 25.1044 13.9461C25.0679 13.9676 25.0284 13.959 25.0164 13.9281C24.97 13.81 25.0297 13.4142 25.0975 13.388ZM36.1157 13.5842C36.1316 13.5799 36.1406 13.5945 36.1526 13.6254C36.1831 13.7035 36.0951 14.0341 36.041 14.0436C36.0213 14.047 35.9938 14.0199 35.9792 13.9826C35.9315 13.8607 35.9513 13.7542 36.0393 13.6546C36.0779 13.6108 36.1003 13.588 36.1157 13.5842ZM24.5433 13.8675C24.5583 13.8658 24.5708 13.868 24.5768 13.8774C24.609 13.9268 24.5433 14.0169 24.4827 14.0062C24.4527 14.0002 24.4282 13.9787 24.4282 13.9581C24.4282 13.9195 24.4978 13.8731 24.5433 13.8675ZM36.0427 14.3321C36.056 14.3308 36.0728 14.3321 36.0947 14.3355C36.2132 14.3527 36.1986 14.3398 36.2329 14.4514C36.2417 14.4793 36.2428 14.509 36.2359 14.5375C36.2291 14.5659 36.2147 14.5919 36.1943 14.6128C36.0955 14.7167 36.1127 14.7554 36.2591 14.7631C36.3596 14.7683 36.3901 14.7949 36.3901 14.8782C36.3901 14.9812 36.3845 14.9846 36.2716 14.9434C36.2067 14.9198 36.1432 14.9142 36.1299 14.9318C36.117 14.949 36.1307 14.9683 36.1612 14.9748C36.1881 14.9787 36.2138 14.9884 36.2368 15.003C36.2597 15.0176 36.2792 15.0369 36.2942 15.0596C36.3091 15.0822 36.3191 15.1078 36.3235 15.1346C36.3279 15.1615 36.3266 15.1889 36.3197 15.2152C36.2896 15.3466 36.3506 15.3556 36.4485 15.2354C36.5523 15.1083 36.6395 15.2525 36.6163 15.5101C36.6086 15.5977 36.5356 15.6471 36.4231 15.6411C36.381 15.6389 36.3471 15.6041 36.3471 15.5655C36.3471 15.5131 36.3184 15.508 36.2372 15.544C36.1556 15.5797 36.1273 15.5732 36.1273 15.5204C36.1273 15.4809 36.1574 15.4328 36.193 15.4122C36.2505 15.3787 36.2505 15.3637 36.193 15.2877C36.1563 15.2389 36.1336 15.181 36.1273 15.1203C36.1273 15.0752 36.1101 15.0417 36.0882 15.0456C36.0281 15.0563 35.8981 14.6472 35.9521 14.6188C35.9766 14.606 35.9968 14.5343 35.9968 14.4587C35.9968 14.3681 36.0028 14.3368 36.0427 14.3321ZM29.0061 14.3874C28.9919 14.3868 28.9778 14.3905 28.9658 14.3982C28.9512 14.408 28.9413 14.4252 28.9413 14.4497C28.9413 14.484 28.9804 14.5506 29.0284 14.5961C29.0765 14.642 29.1164 14.6991 29.1164 14.7249C29.1164 14.7506 29.1465 14.7537 29.183 14.733C29.2306 14.7051 29.2482 14.7275 29.2482 14.815C29.2482 14.9816 29.414 14.9464 29.572 14.7455L29.6926 14.5909L29.5724 14.6364C29.4264 14.6923 29.1959 14.6107 29.1375 14.4819C29.126 14.4558 29.1078 14.4334 29.0847 14.4167C29.0616 14.4001 29.0344 14.39 29.0061 14.3874ZM27.5747 14.8747C27.5711 14.8746 27.5675 14.8754 27.5641 14.8769C27.5608 14.8783 27.5578 14.8805 27.5554 14.8833C27.5267 14.9181 27.6297 15.1366 27.8345 15.4775C27.8645 15.5269 27.8886 15.6132 27.889 15.6685C27.889 15.7244 27.9096 15.778 27.9341 15.7896C27.9586 15.8008 28.0066 15.8746 28.0401 15.9528C28.0736 16.0313 28.1402 16.1013 28.1882 16.109C28.2368 16.1163 28.287 16.1507 28.3007 16.185C28.3441 16.3018 28.3793 16.2395 28.3484 16.0949C28.3097 15.9124 28.1251 15.6102 28.0414 15.5917C28.0066 15.5835 27.9779 15.5256 27.9779 15.4616C27.9746 15.3904 27.9447 15.323 27.8942 15.2727C27.8468 15.2306 27.8093 15.1785 27.7843 15.1203C27.7465 15.0087 27.628 14.8756 27.5747 14.8747ZM35.9272 15.1212C35.9947 15.1091 35.9401 15.2804 35.8405 15.3955C35.7074 15.5488 35.6224 15.5792 35.6873 15.4509C35.7495 15.3277 35.8959 15.1267 35.9272 15.1212ZM22.85 15.5707C22.8741 15.5664 22.8947 15.5827 22.8947 15.6067C22.8947 15.6303 22.8745 15.6655 22.8505 15.6853C22.826 15.7055 22.8067 15.6896 22.8067 15.6501C22.8067 15.611 22.826 15.575 22.85 15.5707ZM35.649 15.5822L35.7967 15.6806L35.9461 15.7785L35.8504 15.8815C35.759 15.9807 35.7585 15.9888 35.8294 16.1056C35.8757 16.1816 35.886 16.2301 35.8551 16.2357C35.8375 16.2387 35.8302 16.2477 35.8302 16.2563C35.8289 16.258 35.7456 16.3542 35.7388 16.3606C35.722 16.4111 35.7099 16.4629 35.7027 16.5156C35.695 16.5298 35.6873 16.5396 35.68 16.5542C35.5726 16.7762 35.5735 16.7753 35.2506 16.7874C35.1905 16.7895 35.1068 16.7938 35.0647 16.7972C35.0547 16.7981 35.0446 16.7969 35.035 16.7936C35.0255 16.7904 35.0167 16.7851 35.0093 16.7782C35.002 16.7713 34.9961 16.763 34.9922 16.7537C34.9883 16.7444 34.9864 16.7343 34.9866 16.7243C34.9527 16.6096 34.9072 16.5096 34.8836 16.358C34.887 16.3512 34.8883 16.3469 34.8926 16.3396C34.9218 16.267 34.9673 16.2224 35.0025 16.2305C35.0355 16.2378 35.0875 16.2078 35.1184 16.1636C35.1493 16.1189 35.2008 16.0768 35.233 16.0712C35.2657 16.0652 35.3137 16.0154 35.3395 15.9605C35.3653 15.9055 35.4125 15.8557 35.4455 15.8497C35.4777 15.8441 35.537 15.781 35.5769 15.7106L35.649 15.5822ZM22.6628 15.6226C22.68 15.6239 22.6989 15.6295 22.7191 15.6393C22.771 15.6647 22.7732 15.6844 22.7298 15.7372C22.6903 15.7862 22.6753 15.79 22.6753 15.751C22.6753 15.7201 22.6452 15.7153 22.604 15.739C22.5559 15.7673 22.5388 15.7587 22.5525 15.7149C22.5654 15.6715 22.5873 15.6432 22.616 15.6299C22.6309 15.6233 22.6467 15.6208 22.6628 15.6226ZM36.0822 15.6441C36.108 15.6398 36.1282 15.657 36.1282 15.6823C36.1282 15.7072 36.1196 15.7295 36.1089 15.7317C36.0986 15.7334 36.0779 15.7166 36.0629 15.6939C36.0483 15.6711 36.0569 15.6484 36.0822 15.6441ZM36.7271 15.915C36.7571 15.9064 36.7915 15.9322 36.8211 15.9944L36.8713 16.1017C36.8413 16.1429 36.8091 16.1777 36.7855 16.2176C36.7812 16.2138 36.6721 16.2305 36.6395 16.1009C36.6514 16.0821 36.6593 16.061 36.6627 16.0391C36.6726 15.9656 36.697 15.9236 36.7271 15.915ZM38.9334 15.9618C38.957 15.9575 38.9767 15.9755 38.9767 16.0004C38.9767 16.013 38.9723 16.0252 38.9645 16.035C38.9566 16.0448 38.9456 16.0517 38.9334 16.0545C38.9089 16.0588 38.8896 16.0416 38.8896 16.0167C38.8896 15.9914 38.9093 15.9661 38.9334 15.9618ZM38.6071 15.9751C38.6444 15.9686 38.6638 15.9858 38.6487 16.0137C38.6341 16.0416 38.6028 16.0682 38.58 16.0725C38.5573 16.0768 38.5393 16.0584 38.5393 16.033C38.5393 16.0077 38.5693 15.9815 38.6071 15.9751ZM36.4845 16.0146C36.5107 16.021 36.5116 16.0562 36.4738 16.1112C36.4626 16.1266 36.4596 16.1382 36.4553 16.1472L36.333 16.1906C36.2299 16.231 36.1046 16.2516 36.041 16.3374C36.041 16.3606 36.0801 16.361 36.1282 16.3391C36.1423 16.3327 36.1432 16.3288 36.1552 16.322L36.1982 16.3091L36.3347 16.3048L36.3269 16.3164C36.3128 16.3284 36.2948 16.3383 36.2827 16.3516C36.2183 16.4216 36.1883 16.489 36.2089 16.5143C36.2282 16.5384 36.2415 16.5989 36.2415 16.6491C36.2381 16.7672 36.0985 16.8226 36.0715 16.7174C36.0586 16.6667 36.0505 16.6852 36.0462 16.7685C36.0423 16.8664 36.0226 16.899 35.9646 16.8973C35.9225 16.8964 35.8873 16.8543 35.8873 16.8045C35.8882 16.7565 35.8772 16.709 35.8551 16.6663C35.8371 16.6401 35.8414 16.5594 35.8659 16.4881C35.8847 16.4327 35.8865 16.4151 35.8916 16.3902C35.9036 16.355 35.956 16.2056 35.956 16.197L35.9504 16.2C35.9759 16.168 36.0092 16.143 36.0471 16.1275C36.0849 16.1119 36.1262 16.1063 36.1668 16.1112C36.2398 16.1146 36.3368 16.0893 36.3832 16.0549C36.4034 16.0392 36.426 16.0267 36.4502 16.018C36.4611 16.0138 36.473 16.0126 36.4845 16.0146ZM33.6381 16.149H33.6398C33.7149 16.149 33.8253 16.1846 33.936 16.252C34.0949 16.349 34.2121 16.4096 34.3138 16.4495C34.3971 16.562 34.4083 16.6478 34.5354 16.6367C34.6028 16.5976 34.7256 16.6732 34.7256 16.7552C34.7256 16.7814 34.7548 16.7861 34.7908 16.765C34.8273 16.744 34.8565 16.7509 34.8565 16.7822C34.8565 16.8183 34.8192 16.835 34.7475 16.8286C34.6491 16.8204 34.6376 16.8342 34.6376 16.9539C34.6376 17.1042 34.7294 17.1325 35.0733 17.0879C35.1807 17.0742 35.2751 17.0849 35.285 17.1124C35.294 17.1394 35.3391 17.1549 35.3854 17.1467C35.4387 17.1373 35.47 17.1639 35.47 17.2197C35.47 17.2957 35.4464 17.3077 35.2841 17.315C35.1815 17.3197 35.0634 17.312 35.0231 17.2978C34.9613 17.2824 34.8969 17.2804 34.8342 17.2918C34.7636 17.3024 34.6915 17.2968 34.6234 17.2755C34.4852 17.2231 34.0919 16.8908 34.0236 16.7689L33.9657 16.6654L33.9081 16.568V16.5645C33.9073 16.5624 33.9004 16.5603 33.9004 16.5581V16.5555C33.8794 16.5242 33.8218 16.4873 33.757 16.4705C33.6226 16.4362 33.5432 16.3413 33.5432 16.2151C33.5432 16.1893 33.5561 16.1713 33.5776 16.1605C33.5964 16.152 33.617 16.1479 33.6377 16.1485M36.9967 16.3915C37.0302 16.4014 37.0482 16.4216 37.0482 16.4525C37.0482 16.5019 36.5854 16.6156 36.5416 16.577C36.4901 16.5323 36.5408 16.4886 36.7125 16.431C36.764 16.4134 36.8104 16.4018 36.8516 16.3941C36.8992 16.3826 36.9487 16.3818 36.9967 16.3915ZM36.6228 16.9449H36.6236C36.6665 16.9406 36.6966 16.9621 36.6966 17.0145C36.6957 17.0471 36.6202 17.1235 36.5287 17.1841C36.3257 17.318 36.3033 17.3236 36.3033 17.2356C36.3033 17.1978 36.3201 17.1639 36.3394 17.1604C36.3587 17.157 36.4193 17.1029 36.4734 17.0402C36.5236 16.9827 36.579 16.9501 36.6228 16.9449ZM36.22 17.0789C36.3682 17.078 36.2724 17.1493 35.956 17.2193C35.7104 17.2734 35.6422 17.2751 35.6568 17.2266C35.6697 17.1832 35.7727 17.1463 35.9904 17.1064C36.0947 17.0879 36.1707 17.0793 36.22 17.0789ZM27.4348 17.8302C27.3691 17.8422 27.3103 17.9646 27.3528 18.0015C27.3837 18.0285 27.4962 17.9178 27.4962 17.8607C27.4962 17.8383 27.4683 17.8242 27.4348 17.8302ZM28.9653 18.755C29.0018 18.7524 29.0452 18.7743 29.0718 18.8219C29.1276 18.922 29.1306 19.0984 29.0778 19.247C29.0555 19.3092 28.9919 19.541 28.9366 19.7622C28.8554 20.0859 28.8151 20.1743 28.7322 20.2224C28.5802 20.31 28.512 20.3125 28.4682 20.231C28.3823 20.0708 28.3716 19.912 28.4368 19.7677C28.4725 19.6874 28.4909 19.5917 28.4763 19.5548C28.4239 19.4217 28.5021 19.25 28.6584 19.1542C28.7421 19.1023 28.8108 19.028 28.8108 18.9889C28.8108 18.9494 28.8297 18.9142 28.8537 18.9099C28.8777 18.9056 28.8983 18.8709 28.8983 18.8327C28.8983 18.7833 28.9284 18.7575 28.9653 18.755ZM28.4471 18.7777C28.4553 18.7837 28.46 18.7975 28.46 18.8168C28.46 18.8975 28.4334 18.9142 28.3956 18.8571C28.3823 18.8361 28.3909 18.8022 28.4154 18.7816C28.4274 18.7717 28.439 18.7717 28.4471 18.7777ZM28.5545 18.834H28.5553C28.5721 18.8356 28.588 18.8427 28.6004 18.8541C28.6665 18.9117 28.6296 18.9572 28.5476 18.9185C28.512 18.9026 28.4986 18.8713 28.5167 18.8494C28.5253 18.8378 28.5394 18.8335 28.5545 18.834ZM29.599 19.5578C29.6045 19.5566 29.6103 19.5567 29.6157 19.5581C29.6212 19.5594 29.6263 19.5621 29.6306 19.5657C29.6349 19.5694 29.6384 19.5739 29.6406 19.5791C29.6429 19.5843 29.6439 19.5899 29.6437 19.5956C29.6433 19.6082 29.6387 19.6204 29.6306 19.6301C29.6225 19.6398 29.6114 19.6466 29.599 19.6492C29.575 19.6535 29.5556 19.6364 29.5556 19.6115C29.5558 19.5989 29.5602 19.5869 29.568 19.5771C29.5759 19.5674 29.5868 19.5606 29.599 19.5578ZM37.6205 19.6879C37.6079 19.6905 37.5965 19.6974 37.5882 19.7072C37.5798 19.7171 37.5751 19.7295 37.5746 19.7424C37.5746 19.7673 37.5832 19.7871 37.5935 19.7853C37.6042 19.7832 37.6257 19.7574 37.6407 19.7295C37.6553 19.7016 37.6458 19.6832 37.6205 19.6879ZM38.6711 20.3065C38.7535 20.3001 38.7574 20.328 38.7574 20.4315C38.7574 20.5731 38.6466 20.7449 38.5436 20.7633C38.5144 20.7689 38.4611 20.7067 38.4263 20.6251C38.3263 20.392 38.3396 20.3606 38.5594 20.3224C38.5964 20.3155 38.6336 20.3102 38.6711 20.3065ZM22.5396 30.8881V31.8901C23.0495 31.6392 23.58 31.4324 24.1251 31.2719C26.0202 30.7138 28.3982 30.4176 30.7655 30.245C33.5285 30.0478 36.2996 29.9879 39.0686 30.0655V28.9493C33.7944 28.8303 26.9325 29.0201 22.5396 30.8881ZM5.7071 2.14869C4.60245 2.14354 4.34829 2.15642 3.86401 2.16629V30.0655C6.63299 29.9879 9.40411 30.0478 12.1671 30.245C14.5344 30.4176 16.9125 30.7138 18.8075 31.2715C19.3527 31.4321 19.8831 31.6391 20.393 31.8901V4.55033C20.3921 4.46189 20.3758 4.35928 20.0251 4.1077C19.6739 3.85568 19.0381 3.57104 18.2296 3.33491C16.6124 2.86437 14.3236 2.55784 12.0302 2.38267C9.73674 2.20751 7.43513 2.15642 5.7071 2.14869ZM15.9899 3.29756C16.2367 3.29198 16.5218 3.29799 16.8502 3.3186C17.6406 3.36754 18.1966 3.6436 18.6435 3.76939C19.6829 4.06133 19.9658 4.29016 20.0375 4.34168C20.162 4.43055 20.1874 4.53359 20.0933 4.56536C20.0616 4.57652 20.0835 4.58983 20.1414 4.59541C20.2299 4.604 20.2462 4.63276 20.2462 4.77014C20.2462 4.88392 20.2256 4.93157 20.1766 4.92857C20.1281 4.92556 20.1054 4.97364 20.1054 5.08441C20.1054 5.17199 20.0796 5.25271 20.0474 5.26387C20.001 5.27975 20.001 5.28448 20.0474 5.29049C20.1333 5.30122 20.1225 5.6099 20.0358 5.63781C19.9371 5.66958 19.9491 5.73956 20.0594 5.77519C20.1564 5.80696 20.1865 5.93104 20.1071 5.97483C20.0817 5.989 20.0208 5.97569 19.9705 5.94563C19.9061 5.907 19.8688 5.90528 19.8473 5.93877C19.8302 5.96538 19.8602 6.00102 19.9143 6.01862C19.9774 6.03923 20.0122 6.08817 20.0122 6.15686C20.0122 6.29639 19.8044 6.34448 19.6876 6.23157C19.6146 6.16073 19.5992 6.16159 19.5219 6.2423C19.4382 6.32988 19.439 6.3316 19.573 6.31357C19.7606 6.28867 19.8903 6.396 19.8379 6.53424L19.7984 6.63814L19.667 6.50934C19.4592 6.30326 19.4648 6.40287 19.6735 6.62483C19.7769 6.73473 19.8572 6.82403 19.8512 6.8236C19.8456 6.82317 19.8555 6.92106 19.8731 7.04084L19.9057 7.25765L19.7254 7.22245C19.6237 7.2027 19.5567 7.20613 19.5708 7.23103C19.5854 7.25507 19.6494 7.27826 19.7125 7.28255C19.7748 7.28599 19.825 7.31561 19.8237 7.34738C19.8194 7.459 19.3824 7.75953 19.1252 7.82736C18.7564 7.92439 18.7362 7.93598 18.6482 8.11415C18.5486 8.31508 18.3692 8.44774 18.1627 8.4735C18.0725 8.48509 18.0038 8.52244 18.0038 8.55936C18.0038 8.595 17.9879 8.62333 17.969 8.62204C17.9497 8.62076 17.9287 8.69632 17.9218 8.78948C17.9149 8.8835 17.8892 8.98396 17.8639 9.01273C17.839 9.04149 17.8321 9.0797 17.8488 9.09774C17.866 9.11577 17.8445 9.12779 17.8029 9.12521C17.7544 9.12221 17.7363 9.14668 17.7535 9.19133C17.7681 9.23083 17.7552 9.36649 17.7239 9.49314C17.6728 9.70265 17.6552 9.72283 17.535 9.71553C17.4427 9.70995 17.3942 9.67861 17.3727 9.60992C17.3512 9.54251 17.3092 9.51332 17.2366 9.51847C17.205 9.51921 17.1736 9.51359 17.1443 9.50194C17.1149 9.49028 17.0882 9.47284 17.0657 9.45064C16.9721 9.34417 16.7489 8.87534 16.712 8.70662C16.6911 8.61867 16.6578 8.53411 16.6132 8.45547C16.4514 8.19572 16.5102 7.58522 16.7 7.54701C16.7485 7.53757 16.7854 7.46974 16.7974 7.3667C16.8137 7.2276 16.8013 7.19926 16.7158 7.17737C16.6386 7.15762 16.6201 7.17093 16.6373 7.23704C16.669 7.36112 16.4458 7.39503 16.3398 7.28212C16.2646 7.2027 16.265 7.18853 16.3483 7.03998C16.4295 6.89401 16.4488 6.885 16.6098 6.91677L16.7841 6.95025L16.6708 6.83863C16.6085 6.77681 16.5673 6.71327 16.5793 6.69695C16.5918 6.68064 16.5776 6.68708 16.5467 6.71112C16.469 6.77208 16.3234 6.75663 16.317 6.68579C16.3058 6.56687 16.3329 6.43936 16.3805 6.38398C16.4149 6.34405 16.4149 6.29511 16.3805 6.22083C16.317 6.08345 16.183 5.63695 16.183 5.56225C16.183 5.53048 16.15 5.46737 16.1105 5.42143C16.0663 5.36553 16.0349 5.30061 16.0186 5.23124C15.9941 5.10244 16.0173 5.1252 15.77 4.98524L15.5691 4.87061L15.4098 4.95518C15.278 5.02473 15.2252 5.0286 15.1076 4.98051C14.9595 4.91955 14.8496 4.76843 14.8981 4.69287C14.9135 4.66839 14.8723 4.62546 14.8066 4.59627C14.6564 4.53015 14.6547 4.43098 14.8002 4.32579L14.9122 4.24508L14.7564 4.15063C14.4125 3.9437 14.2614 3.33663 15.9899 3.29756ZM10.3786 3.67751C10.552 3.68567 10.6705 3.7007 10.6418 3.711C10.6134 3.72088 10.6005 3.78055 10.6126 3.84409C10.6297 3.93597 10.6087 3.96774 10.5095 3.99951C10.3498 4.05017 10.3588 4.05231 10.2871 3.94799C10.25 3.8963 10.2011 3.85409 10.1446 3.82477C10.0995 3.80545 10.063 3.76037 10.063 3.72603C10.063 3.67966 10.1472 3.66592 10.3786 3.67751ZM11.5927 3.74707C11.7863 3.74964 11.8503 3.80717 11.7327 3.87457C11.6365 3.9291 11.4236 3.91064 11.3695 3.84237C11.3055 3.76123 11.348 3.74363 11.5927 3.74707ZM12.0238 3.7681C12.18 3.77755 12.2161 3.79429 12.1946 3.84839C12.177 3.89346 12.1963 3.91794 12.2517 3.92137C12.3608 3.92824 12.3977 3.97074 12.3668 4.05017C12.3324 4.13775 12.1616 4.11714 12.0482 4.01153C11.9915 3.95848 11.9387 3.90138 11.8902 3.84066C11.8314 3.76295 11.843 3.75651 12.0233 3.76767M11.0037 3.8222C11.044 3.78442 11.184 3.94498 11.1947 4.04244C11.2153 4.21975 11.1033 4.19571 11.0432 4.00981C11.0123 3.91493 10.9947 3.83035 11.0037 3.8222ZM9.93466 3.84881C9.95398 3.85568 9.97416 3.88058 10.0059 3.92781C10.051 3.99479 10.0617 4.04287 10.0317 4.05103C10.0046 4.05833 9.99262 4.115 10.0042 4.17553C10.0158 4.23692 10.0012 4.29961 9.97287 4.31506C9.94496 4.33052 9.92264 4.37903 9.9235 4.42239C9.92479 4.49495 9.92865 4.49452 9.97244 4.42239C10.0227 4.33867 10.203 4.32236 10.203 4.40136C10.203 4.42711 10.2352 4.44987 10.2751 4.45287C10.3146 4.45502 10.3829 4.522 10.4267 4.60185C10.4739 4.68771 10.5443 4.74868 10.5993 4.75211C10.6705 4.75641 10.6778 4.74653 10.6289 4.71262C10.5932 4.68771 10.5778 4.64693 10.5945 4.62117C10.6025 4.60836 10.6052 4.59294 10.602 4.57818C10.5988 4.56343 10.5899 4.55051 10.5774 4.54217C10.5035 4.49194 10.5203 4.40178 10.6254 4.29574C10.7246 4.19528 10.835 4.21417 10.7916 4.32408C10.7779 4.35842 10.7886 4.40136 10.8148 4.41896C10.8414 4.43699 10.8521 4.48121 10.8384 4.51641C10.8212 4.56021 10.8491 4.58167 10.9273 4.58682C11.0625 4.59541 11.1419 4.72807 11.105 4.88177C11.0792 4.98824 11.0818 4.98996 11.1488 4.90753C11.2175 4.82381 11.2192 4.82381 11.2729 4.92728C11.3029 4.98524 11.3158 5.03375 11.3021 5.03633C11.2511 5.04156 11.2 5.04542 11.1488 5.04792C10.7985 5.06853 10.6353 5.10244 10.522 5.17543C10.3657 5.27632 10.2257 5.26816 10.1476 5.15439C10.1141 5.10545 10.0179 5.0213 9.93466 4.96721C9.81917 4.89293 9.78869 4.84699 9.80887 4.77616C9.82647 4.71304 9.82089 4.70145 9.79298 4.74009C9.75134 4.79676 9.59549 4.75984 9.59549 4.69287C9.59549 4.63705 9.76121 4.5147 9.83033 4.51899C9.87928 4.522 9.88185 4.50869 9.83978 4.46447C9.79814 4.41982 9.76121 4.43527 9.68479 4.52801C9.6161 4.61087 9.56029 4.63705 9.50877 4.61172C9.45996 4.58969 9.40763 4.57647 9.35421 4.57266C9.22713 4.56965 9.21683 4.44343 9.33489 4.32365C9.41441 4.23913 9.48814 4.14934 9.55557 4.05489C9.61997 3.96302 9.69467 3.9072 9.73674 3.92008C9.77581 3.9321 9.83549 3.91407 9.86983 3.87973C9.89645 3.85311 9.91534 3.84238 9.93466 3.84881ZM13.3568 3.86985C13.4813 3.86427 13.62 3.86556 13.7483 3.87157H13.7492C14.0068 3.88359 14.2232 3.91665 14.2082 3.9613C14.1974 3.99264 14.1416 4.02269 14.0837 4.02741C14.015 4.03342 13.9879 4.06004 14.0051 4.10555C14.0193 4.14333 13.9944 4.21074 13.9497 4.25453C13.8501 4.35284 13.8269 4.44429 13.9038 4.43313C13.9351 4.42883 13.9682 4.47005 13.9768 4.52543C13.9875 4.59842 13.9467 4.65079 13.8316 4.71519C13.6483 4.81694 13.5577 4.82467 13.5925 4.7358C13.6097 4.69158 13.571 4.67312 13.4508 4.66882C13.3598 4.66539 13.2855 4.67956 13.2855 4.69974C13.2855 4.72034 13.1825 4.71648 13.055 4.69115C12.879 4.65723 12.806 4.66281 12.7523 4.71347C12.6888 4.77315 12.6987 4.78946 12.8455 4.86846C12.9987 4.95046 13.0254 4.95175 13.2439 4.89293C13.4345 4.84141 13.5023 4.84141 13.6118 4.89379C13.7681 4.96806 13.8239 5.0784 13.7483 5.16426C13.7192 5.19775 13.7063 5.2673 13.7192 5.31796C13.732 5.36862 13.7166 5.41757 13.6848 5.42787C13.6092 5.45234 12.7283 5.39524 12.6089 5.35832H12.6081C12.4466 5.30809 12.3986 5.23382 12.3977 5.03461C12.3968 4.71906 12.3569 4.62589 12.235 4.64865C12.1543 4.6641 12.1053 4.63491 12.0293 4.52414C11.8812 4.30647 11.8997 4.22662 12.0937 4.23864C12.2054 4.24551 12.2753 4.27943 12.3148 4.34426C12.353 4.40822 12.4041 4.43313 12.4694 4.42067C12.4995 4.41558 12.5303 4.41858 12.5589 4.42937C12.5874 4.44016 12.6125 4.45835 12.6317 4.48207C12.6875 4.55291 12.7004 4.54776 12.754 4.42325C12.7871 4.34683 12.8451 4.28587 12.8828 4.28844C12.9442 4.29188 12.9442 4.27556 12.8858 4.15922C12.8489 4.08623 12.8189 4.01325 12.8184 3.99736C12.8184 3.98105 12.9223 3.94026 13.0494 3.90677C13.1504 3.88449 13.2534 3.87212 13.3568 3.86985ZM10.1519 4.17768C10.2013 4.17982 10.2494 4.21846 10.2494 4.26741C10.2494 4.3215 10.1987 4.31935 10.1154 4.2614C10.0712 4.23048 10.0682 4.20859 10.1042 4.18841C10.1188 4.18049 10.1353 4.17678 10.1519 4.17768ZM15.1797 4.19786C15.1398 4.19528 15.1067 4.21374 15.1067 4.2395C15.1067 4.26526 15.1273 4.28758 15.1514 4.28887C15.1754 4.29059 15.2072 4.2717 15.2235 4.24723C15.2394 4.22233 15.2201 4.2 15.1797 4.19786ZM11.7872 4.36186C11.8022 4.36357 11.8228 4.37817 11.8542 4.40651C11.9164 4.46146 11.9323 4.54604 11.9254 4.79633L11.9169 5.11575L11.7322 5.10416C11.5549 5.093 11.5476 5.08613 11.5657 4.96162C11.5828 4.84442 11.573 4.83283 11.4704 4.84571C11.366 4.85944 11.3587 4.84957 11.3879 4.73494C11.4094 4.65251 11.4038 4.61902 11.3712 4.63705C11.2802 4.68771 11.16 4.60443 11.1531 4.48507C11.1454 4.35027 11.2329 4.33481 11.3437 4.45244C11.3841 4.49538 11.4175 4.51341 11.4175 4.49194C11.4175 4.4108 11.6086 4.34125 11.673 4.39878C11.7189 4.43957 11.7404 4.43828 11.7554 4.39449C11.7636 4.37087 11.7726 4.36014 11.7872 4.36186ZM12.1328 4.84914C12.3088 4.8603 12.4333 5.2467 12.2771 5.29693C12.1796 5.32827 12.1955 5.33557 12.0714 5.19561C11.9774 5.08956 11.9692 5.05608 12.0156 4.95819C12.0448 4.89551 12.0976 4.84699 12.1328 4.84914ZM9.25075 5.11017C9.33146 5.10244 9.38813 5.1033 9.43364 5.11318C9.47637 5.12277 9.51534 5.14471 9.54569 5.17629C9.59421 5.22265 9.67707 5.257 9.7303 5.25185C9.79685 5.24541 9.88743 5.31109 10.0154 5.45878C10.1184 5.5777 10.2017 5.69405 10.2017 5.71809C10.2017 5.74171 10.2227 5.75115 10.2476 5.73698C10.2725 5.72324 10.3464 5.74943 10.4112 5.7958C10.522 5.87523 10.5293 5.87565 10.5293 5.80009C10.5293 5.72453 10.537 5.72453 10.6461 5.80267C10.7598 5.88424 10.7624 5.88424 10.7624 5.76918C10.7624 5.69963 10.7894 5.65284 10.8281 5.65498C10.8637 5.65713 10.9045 5.62794 10.9195 5.59058C10.947 5.51975 11.1604 5.50772 11.2003 5.5747C11.2128 5.59531 11.1986 5.69791 11.1703 5.80224C11.1321 5.92364 11.1328 6.05395 11.1724 6.17489C11.2025 6.27493 11.2394 6.40544 11.2548 6.46426C11.2703 6.52308 11.3072 6.57331 11.3377 6.57588C11.4248 6.58361 11.6039 6.76221 11.6039 6.84163C11.6039 6.88113 11.567 6.93179 11.5223 6.95369C11.4772 6.97601 11.4566 7.01036 11.4751 7.03011C11.5343 7.09279 11.4115 7.18595 11.2806 7.1778C11.2325 7.16191 11.0917 7.11211 11.0771 7.11082C11.0758 7.11082 10.6804 7.19669 10.6091 7.20871C10.5588 7.19736 10.5075 7.19089 10.4559 7.18939C10.3691 7.15719 10.2528 7.2203 10.2026 7.07733C10.2026 7.04814 10.1309 6.99662 10.0433 6.96228C9.89946 6.90603 9.82862 6.82403 9.82862 6.71413C9.82862 6.69266 9.88701 6.65745 9.95742 6.63599L10.0849 6.59735L9.93895 6.58447C9.78998 6.57116 9.73545 6.50376 9.73545 6.33117C9.73545 6.2818 9.71399 6.24015 9.68823 6.23843C9.62254 6.23414 9.63027 6.0783 9.70025 6.00875C9.74833 5.96109 9.73975 5.95894 9.65302 5.99801C9.59549 6.02377 9.54827 6.08817 9.54827 6.13969C9.54827 6.19121 9.51221 6.24273 9.4667 6.25604C9.40919 6.27627 9.35527 6.30554 9.30699 6.34276C9.23701 6.39857 9.22112 6.38999 9.15672 6.26205C9.11723 6.18348 9.04982 6.1032 9.00732 6.08431C8.95323 6.06026 8.93992 6.01991 8.96138 5.94778C8.97856 5.89111 9.00002 5.78807 9.01076 5.71895C9.02149 5.6494 9.05111 5.55366 9.0773 5.50644C9.10735 5.45277 9.10864 5.36562 9.08288 5.2746C9.0421 5.12906 9.04424 5.1282 9.25032 5.11017M12.2766 5.44204C12.3367 5.43946 12.4119 5.45492 12.502 5.48712C12.6866 5.55409 12.7038 5.582 12.6364 5.70951C12.6132 5.75244 12.5711 5.84431 12.5432 5.91344C12.5153 5.98213 12.463 6.03708 12.4265 6.03493C12.3393 6.02935 12.2891 6.23758 12.3492 6.35435C12.3758 6.40501 12.3973 6.48186 12.3973 6.52436C12.3973 6.5673 12.4398 6.65874 12.4913 6.72744C12.5626 6.82275 12.5729 6.86611 12.5321 6.91204C12.4917 6.95841 12.4964 6.97301 12.5548 6.97644C12.6008 6.97945 12.6304 7.02023 12.6304 7.08034C12.6304 7.16492 12.6416 7.17221 12.7034 7.12499C12.8081 7.04428 12.9206 7.1778 12.9206 7.38387C12.9206 7.47317 12.9386 7.57664 12.9614 7.61399C12.985 7.65263 13.003 7.6595 13.0035 7.62987C13.0035 7.60068 13.0391 7.49764 13.0825 7.40062C13.201 7.13358 13.1348 6.87341 12.9451 6.86181C12.7871 6.85194 12.6162 6.48315 12.6488 6.22341C12.6987 5.82328 12.8386 5.63953 13.0816 5.65498C13.1988 5.66228 13.2284 5.68074 13.2083 5.73312C13.1842 5.79323 13.1971 5.79408 13.3147 5.74042C13.523 5.64554 13.933 5.73054 14.0669 5.89669C14.1244 5.96796 14.1725 6.04781 14.1734 6.07357C14.1764 6.16116 14.4288 6.47113 14.4851 6.45567C14.516 6.44709 14.5791 6.48873 14.625 6.54798C14.6714 6.60722 14.7375 6.68064 14.7719 6.71155C14.9844 6.90217 15.1037 7.07004 15.0797 7.14431C15.0638 7.19411 15.0775 7.2276 15.1149 7.2306C15.1561 7.23404 15.1492 7.25507 15.0947 7.29328C14.987 7.36885 14.9917 7.44269 15.1063 7.48648C15.1578 7.5058 15.2008 7.54015 15.2008 7.56376C15.2008 7.58651 15.2368 7.5951 15.2819 7.58179C15.3265 7.56891 15.348 7.57363 15.3287 7.59381C15.3098 7.61356 15.3781 7.7123 15.4807 7.8132C15.691 8.02056 15.7039 8.08109 15.5734 8.23952C15.5232 8.30048 15.4811 8.3769 15.4807 8.40867C15.4798 8.44087 15.4579 8.46577 15.4309 8.46405C15.3691 8.46019 15.154 8.21633 15.1518 8.14807C15.151 8.11973 15.1299 8.12961 15.1046 8.17039C15.0496 8.26184 15.093 8.39579 15.1793 8.40137C15.3313 8.41082 15.4455 8.96636 15.3038 9.005C15.272 9.01359 15.2467 8.9977 15.2467 8.9698C15.2467 8.94189 15.2282 8.91828 15.2063 8.91699C15.184 8.91527 15.1767 8.97066 15.1892 9.03849C15.2141 9.16943 15.2274 9.16729 14.9316 9.06339C14.8736 9.04321 14.8255 9.01015 14.8255 8.98912C14.8255 8.96765 14.774 8.93416 14.7109 8.91441C14.6391 8.88763 14.5786 8.83701 14.5396 8.77102C14.4198 8.53918 14.2889 8.46448 14.1206 8.53103C13.9939 8.58126 13.8733 8.44817 13.9106 8.30048C13.9385 8.19057 13.9613 8.17855 14.0716 8.20732C14.2197 8.24595 14.3395 8.19744 14.2923 8.11759C14.2747 8.08753 14.303 8.01068 14.3558 7.94672C14.4091 7.88232 14.4524 7.78357 14.4524 7.72776C14.4524 7.5878 14.2116 7.34824 14.1051 7.38215C14.0394 7.40362 14.0266 7.38645 14.0381 7.29672C14.0545 7.17479 13.9192 6.93394 13.8737 7.00435C13.8583 7.02839 13.7702 7.04342 13.6784 7.03784C13.4783 7.02496 13.4216 7.06531 13.5238 7.14688C13.5809 7.19196 13.5977 7.27912 13.5938 7.4955C13.5869 7.84497 13.4414 8.05619 13.2392 8.01111C13.1301 7.98707 13.1357 7.99952 13.307 8.16395C13.4096 8.2627 13.5096 8.34427 13.5294 8.34599C13.5487 8.34685 13.5646 8.37475 13.5646 8.40695C13.5646 8.43958 13.6075 8.49496 13.6599 8.53146C13.7123 8.56709 13.7423 8.6156 13.7273 8.63922C13.6895 8.69803 13.4839 8.68172 13.4452 8.61646C13.4255 8.58297 13.3787 8.59714 13.3122 8.6551C13.222 8.7341 13.1937 8.7371 13.0842 8.67957C12.961 8.61474 12.9262 8.54176 12.9897 8.48165C13.0078 8.46491 13.0279 8.40523 13.0352 8.34856L13.0494 8.24553L12.9893 8.34899C12.9562 8.40609 12.8614 8.48895 12.7798 8.5336C12.6978 8.57825 12.6304 8.64179 12.6304 8.67442C12.6304 8.70705 12.5643 8.79206 12.4836 8.86332C12.2234 9.09258 12.1173 9.50302 12.3024 9.56312C12.3608 9.58201 12.405 9.6477 12.4226 9.74129C12.4453 9.86408 12.4724 9.89156 12.5814 9.90229C12.6544 9.90916 12.7832 9.97012 12.8691 10.0371C13.1108 10.2251 13.2366 10.2887 13.3834 10.2977C13.5122 10.3063 13.5182 10.3166 13.5182 10.5141C13.5182 10.6686 13.5479 10.7575 13.6341 10.8605C13.7844 11.0404 13.8467 10.9627 13.7917 10.6652C13.7548 10.4647 13.7617 10.4437 13.8922 10.3299C13.9695 10.2629 14.0317 10.1899 14.0317 10.168C14.0308 10.0422 13.9269 9.7765 13.8681 9.75031C13.778 9.70995 13.778 9.57514 13.869 9.58115C13.9265 9.58459 13.9373 9.51933 13.9274 9.2231C13.9179 8.91957 13.9269 8.86375 13.9853 8.8835C14.024 8.89638 14.1408 8.91355 14.2455 8.92257C14.3906 8.93545 14.4645 8.97194 14.5581 9.07884C14.6255 9.15569 14.716 9.2261 14.7594 9.23555C14.8165 9.24757 14.8418 9.30424 14.8496 9.44077C14.8564 9.55668 14.8972 9.66917 14.9548 9.73013C15.0432 9.82458 15.0526 9.82501 15.1175 9.75374C15.1552 9.7121 15.1999 9.62323 15.2171 9.55582C15.2476 9.43647 15.3875 9.38753 15.3875 9.49615C15.3875 9.5262 15.4167 9.58674 15.4528 9.62924C15.4893 9.67217 15.564 9.8439 15.6189 10.0113C15.7275 10.3419 15.7799 10.417 15.9409 10.478C15.9989 10.5003 16.0697 10.5712 16.0976 10.6351C16.1259 10.6987 16.1749 10.7519 16.2067 10.7541C16.2796 10.7584 16.3204 11.0233 16.2569 11.0829C16.2243 11.113 16.2277 11.1289 16.2672 11.1314C16.3101 11.134 16.3118 11.1572 16.2736 11.2259C16.2157 11.3311 16.3045 11.4607 16.4398 11.4693C16.49 11.4723 16.5085 11.4994 16.4913 11.5432C16.4763 11.5805 16.4827 11.6119 16.5042 11.6136C16.5694 11.6179 16.6004 11.8141 16.5505 11.9047C16.5132 11.9716 16.4862 11.9776 16.4123 11.933C16.3612 11.9025 16.2998 11.8892 16.2762 11.9021C16.253 11.915 16.2213 11.9029 16.2049 11.8763C16.1891 11.8488 16.1032 11.8222 16.0139 11.8162C15.8718 11.8076 15.8533 11.7935 15.8679 11.7024C15.8769 11.6453 15.9237 11.5221 15.971 11.429C16.0676 11.2405 16.0388 11.1568 15.913 11.2624C15.8497 11.3081 15.7774 11.3397 15.7009 11.3551C15.597 11.3749 15.5816 11.3929 15.6249 11.4474C15.6679 11.5024 15.6567 11.514 15.5678 11.5071C15.4947 11.4976 15.4253 11.4692 15.3665 11.4247C15.263 11.3401 15.1063 11.3169 15.1063 11.386C15.1063 11.4118 15.172 11.4376 15.2523 11.4427C15.3905 11.4513 15.397 11.459 15.3699 11.5934C15.3381 11.7497 15.394 11.8381 15.5588 11.8909C15.6224 11.912 15.6704 11.9008 15.6859 11.8609C15.722 11.769 15.7958 11.7883 15.8301 11.8986C15.8662 12.0137 15.7937 12.0884 15.5734 12.161C15.4837 12.191 15.3776 12.2408 15.3373 12.2726C15.2214 12.3627 15.154 12.3348 15.1501 12.1945C15.1479 12.124 15.1359 12.091 15.1235 12.121C15.1106 12.1511 15.029 12.194 14.9423 12.2172C14.7835 12.2601 14.6693 12.4362 14.7736 12.4774C14.8453 12.5057 14.8406 12.5838 14.7676 12.5796C14.6598 12.5731 14.3503 12.6543 14.376 12.6817C14.3902 12.6968 14.349 12.8088 14.2846 12.9316C14.2189 13.0578 14.1802 13.1935 14.1957 13.2437C14.2159 13.3081 14.1751 13.3648 14.0467 13.4532C13.7393 13.6645 13.6114 13.7821 13.6114 13.8542C13.6114 13.8929 13.6466 14.0375 13.6895 14.1762C13.7535 14.3827 13.7565 14.4398 13.7067 14.4965C13.6741 14.5343 13.6324 14.5648 13.6148 14.5635C13.568 14.5605 13.3787 14.1994 13.3787 14.1131C13.3787 14.0131 13.3383 13.992 13.0267 13.9362C12.7862 13.8933 12.7583 13.8972 12.7845 13.9671C12.8171 14.0534 12.6974 14.0581 12.4209 13.9809C12.3204 13.9525 12.2393 13.9658 12.1341 14.0268C12.001 14.1041 11.983 14.141 11.9546 14.4132C11.9207 14.7369 11.9624 14.9138 12.1092 15.0692C12.229 15.1967 12.5514 15.1727 12.5759 15.0349C12.5892 14.9776 12.6214 14.9265 12.6673 14.8897C12.7454 14.8339 13.0511 14.8318 13.0511 14.8872C13.0511 14.9228 12.9661 15.1933 12.9064 15.3483C12.8691 15.444 12.8785 15.4517 13.0481 15.4625C13.3474 15.4809 13.3787 15.5106 13.3787 15.7845C13.3787 16.1043 13.5041 16.2812 13.6818 16.2112C13.7203 16.1951 13.7619 16.1876 13.8037 16.1891C13.8454 16.1907 13.8863 16.2013 13.9235 16.2202C14.0308 16.2679 14.0626 16.2606 14.1455 16.1687C14.2451 16.0579 14.6392 15.9532 14.6392 16.0369C14.6392 16.0614 14.6804 16.0708 14.7311 16.0575C14.7813 16.0446 14.8706 16.0631 14.9286 16.0979C14.987 16.1326 15.1561 16.167 15.3051 16.1751C15.5348 16.1872 15.5966 16.2099 15.7112 16.322C16.0354 16.6388 16.1624 16.7307 16.2895 16.7384C16.5179 16.7526 16.7176 16.8917 16.806 17.0982C16.8511 17.2029 16.8747 17.3081 16.8584 17.333C16.8575 17.3343 16.8859 17.3373 16.8884 17.339L16.8798 17.3451L17.1851 17.449L17.3405 17.5528C17.4255 17.6099 17.5938 17.6761 17.714 17.6997C17.8342 17.7233 17.9952 17.7941 18.0725 17.8564C18.1498 17.9186 18.255 17.9796 18.3065 17.992C18.3786 18.0097 18.4027 18.0573 18.4138 18.205C18.4258 18.3724 18.4009 18.427 18.215 18.6412C18.0412 18.8413 18.003 18.9202 18.003 19.0731C18.003 19.295 17.9325 19.511 17.7883 19.733C17.7046 19.8618 17.6445 19.8987 17.4964 19.9133C17.2456 19.9377 17.0215 20.1146 17.0215 20.2889C17.0215 20.422 16.8768 20.6831 16.7081 20.8513C16.6372 20.9263 16.5711 21.0055 16.5102 21.0888C16.4179 21.2158 16.3788 21.2343 16.2505 21.2111C16.0993 21.1841 16.0744 21.218 16.1521 21.3472C16.2474 21.5061 15.9976 21.7182 15.7357 21.7018C15.6481 21.6963 15.6133 21.7285 15.582 21.8444C15.5481 21.9689 15.5215 21.9903 15.4176 21.977C15.3489 21.9676 15.2935 21.9796 15.2935 22.0037C15.2935 22.0277 15.3223 22.0492 15.3579 22.0513C15.4661 22.0582 15.485 22.1943 15.3849 22.2419C15.3343 22.2655 15.2935 22.3205 15.2935 22.3634C15.2935 22.4064 15.236 22.4862 15.1651 22.5403L15.0363 22.6391L15.1449 22.7382C15.2673 22.8499 15.2548 22.9623 15.1059 23.0877C15.0548 23.1306 15.0136 23.1877 15.0136 23.2126C15.0136 23.2384 14.9771 23.2826 14.9329 23.3118C14.865 23.3573 14.8624 23.3848 14.9101 23.493C14.9414 23.563 14.9663 23.6578 14.9663 23.7033C14.9663 23.7974 15.1522 24.0013 15.2424 24.0069C15.275 24.009 15.2926 24.0369 15.2819 24.0683C15.263 24.1241 14.932 24.128 14.6954 24.0756C14.6242 24.0601 14.5924 24.0262 14.6027 23.9751C14.6113 23.9326 14.5774 23.8738 14.528 23.845C14.4768 23.8146 14.4339 23.7719 14.4031 23.721C14.3314 23.575 14.2554 23.1143 14.273 22.9319C14.2859 22.7945 14.2756 22.7494 14.2318 22.7636C14.1953 22.7752 14.1725 22.7434 14.1725 22.6794C14.1725 22.6159 14.2077 22.5695 14.2657 22.5579C14.3172 22.5476 14.3593 22.5021 14.3593 22.4557C14.3593 22.4094 14.3722 22.3385 14.388 22.299C14.4069 22.2501 14.3902 22.2252 14.3361 22.2218C14.2747 22.2179 14.2623 22.1917 14.2846 22.1136C14.3009 22.0569 14.3266 21.8744 14.3408 21.7087C14.3554 21.5426 14.4074 21.3103 14.4567 21.1927C14.5061 21.0755 14.5456 20.8896 14.5456 20.7788C14.5456 20.6676 14.5782 20.4139 14.6169 20.2151C14.6582 19.9876 14.6815 19.7572 14.6864 19.526C14.6864 19.244 14.6714 19.186 14.5808 19.1053C14.5229 19.0529 14.4585 19.0091 14.4366 19.0065C14.3048 18.9937 14.1068 18.7502 13.9377 18.3926C13.8329 18.1724 13.7067 17.9517 13.6569 17.9032C13.5655 17.8152 13.535 17.6404 13.6007 17.5786C13.62 17.5606 13.6359 17.4799 13.6359 17.3983V17.251L13.7054 17.1493C13.7054 17.13 13.7634 17.0557 13.8338 16.9844C13.9042 16.9127 13.9553 16.8105 13.9484 16.7577C13.9081 16.4383 13.8823 16.355 13.82 16.3512C13.8112 16.3507 13.8023 16.3521 13.7939 16.3552C13.7856 16.3583 13.778 16.3631 13.7716 16.3694C13.7653 16.3756 13.7602 16.383 13.7569 16.3913C13.7536 16.3995 13.752 16.4084 13.7522 16.4173C13.7522 16.4959 13.6333 16.5049 13.5891 16.4302C13.5782 16.4154 13.5642 16.4031 13.5481 16.3941C13.532 16.3851 13.5142 16.3797 13.4959 16.3782C13.4096 16.3726 13.1031 16.1545 13.0984 16.0953C13.0902 15.9914 12.9228 15.8463 12.7244 15.7712C12.6085 15.7274 12.4539 15.6394 12.3805 15.5745C12.2783 15.4848 12.2122 15.4616 12.0989 15.4758C11.9873 15.4899 11.8585 15.4466 11.5794 15.3023C11.1329 15.0709 11.035 14.9846 11.0689 14.8515C11.0874 14.7794 11.0419 14.694 10.8938 14.5283C10.5786 14.1749 10.3477 13.8662 10.2974 13.731C10.2721 13.6623 10.2287 13.6048 10.203 13.6035C10.127 13.5988 10.1472 13.6696 10.2605 13.8087C10.3185 13.8795 10.4181 14.0414 10.482 14.1685C10.5464 14.2956 10.6259 14.4175 10.6581 14.4402C10.6749 14.4531 10.6887 14.4694 10.6987 14.4881C10.7087 14.5068 10.7146 14.5273 10.716 14.5484C10.716 14.5858 10.6903 14.6141 10.6581 14.6111C10.5718 14.6038 10.3318 14.366 10.3631 14.3179C10.3777 14.2951 10.3219 14.2247 10.2382 14.1616C10.1793 14.1179 10.121 14.0732 10.0635 14.0277C10.0514 14.0174 10.072 13.992 10.109 13.9719C10.1665 13.9392 10.1643 13.9203 10.0931 13.8439C10.0471 13.795 9.96042 13.658 9.90117 13.5391C9.83978 13.4159 9.73545 13.2892 9.65946 13.2472C9.49804 13.157 9.45854 13.1046 9.26534 12.7161C9.12152 12.4276 9.11508 12.3919 9.1095 11.8274C9.10435 11.3062 9.09361 11.2306 9.01462 11.1684C8.742 10.952 8.65399 10.8382 8.7098 10.7751C8.75273 10.7253 8.74672 10.6828 8.68189 10.5776C8.63595 10.5046 8.57113 10.4265 8.53678 10.4037C8.50244 10.381 8.47367 10.311 8.47367 10.2475C8.46764 10.1713 8.43424 10.1 8.37965 10.0465C8.32813 9.99932 8.28691 9.93363 8.28691 9.90143C8.28691 9.82072 8.13923 9.64426 8.09329 9.66959C8.07268 9.68119 8.04263 9.63525 8.02588 9.56913C8.00742 9.49357 7.96406 9.44763 7.90868 9.44463C7.86017 9.44119 7.72407 9.35876 7.60601 9.26131C7.45703 9.13852 7.34283 9.08142 7.23121 9.07455C7.13976 9.06897 6.99035 9.00844 6.88474 8.93545C6.78256 8.86418 6.69841 8.82597 6.69841 8.84958C6.69841 8.87363 6.72503 8.90411 6.75723 8.91699C6.80317 8.93502 6.80274 8.95477 6.7538 9.01058C6.71988 9.04965 6.66278 9.0694 6.62715 9.05351C6.59194 9.03763 6.51466 9.0548 6.45627 9.09215C6.28369 9.20206 6.21542 9.17458 6.24934 9.00758L6.27853 8.86246L6.18451 8.97538C6.13299 9.03806 6.10294 9.12092 6.11754 9.15999C6.13213 9.19906 6.12226 9.24371 6.09478 9.25873C6.08029 9.26764 6.06821 9.27998 6.05961 9.29465C6.051 9.30932 6.04612 9.32588 6.04541 9.34288C6.04627 9.37336 6.06859 9.36263 6.09478 9.31927C6.12097 9.27633 6.17163 9.24242 6.20727 9.24456C6.32404 9.25186 6.25964 9.46352 6.10423 9.58416L5.95396 9.70179L5.96727 9.53736C5.98187 9.35447 5.99432 9.35061 5.65816 9.63697C5.55255 9.72712 5.44908 9.78895 5.42847 9.77435C5.40701 9.76061 5.39069 9.78294 5.39069 9.82415C5.39069 9.8658 5.36965 9.88597 5.34518 9.86923C5.32071 9.85292 5.22626 9.86623 5.13481 9.89885C4.93647 9.96926 4.89997 9.97098 4.89997 9.91388C4.89997 9.8688 5.22798 9.6507 5.2898 9.65457C5.35334 9.65886 5.61179 9.39697 5.63712 9.30338C5.6573 9.22782 5.64786 9.21923 5.57745 9.25229C5.51562 9.28149 5.486 9.27247 5.46668 9.22138C5.44822 9.17158 5.39971 9.15698 5.30096 9.17072C5.17302 9.18875 5.16315 9.18102 5.18161 9.0797C5.19921 8.98396 5.18376 8.96808 5.07428 8.96207C4.97425 8.95735 4.94677 8.93373 4.94548 8.85302C4.94462 8.79678 4.89396 8.70361 4.833 8.64694C4.73297 8.55378 4.72739 8.53274 4.78277 8.43314C4.84373 8.32237 5.15886 8.10557 5.24944 8.11115C5.30955 8.11458 5.31255 7.99008 5.25374 7.95015C5.24796 7.94623 5.24144 7.94352 5.23458 7.94219C5.22772 7.94086 5.22066 7.94094 5.21384 7.94243C5.20701 7.94391 5.20055 7.94677 5.19487 7.95083C5.18918 7.95489 5.18438 7.96006 5.18075 7.96604C5.16444 7.99179 5.1258 7.99523 5.09532 7.97333C5.05757 7.94881 5.0152 7.9323 4.97081 7.92482C4.9225 7.91838 4.87427 7.91137 4.82613 7.90378C4.74713 7.89176 4.64324 7.70071 4.64324 7.56676C4.64324 7.48047 4.86477 7.33922 4.98884 7.34695C5.03006 7.34953 5.06355 7.38344 5.06355 7.42165C5.06355 7.46029 5.09446 7.49421 5.1331 7.49635C5.17174 7.49893 5.20436 7.45943 5.20436 7.40748C5.20436 7.35597 5.18376 7.31303 5.15929 7.31089C5.13438 7.3096 5.02018 7.21042 4.90513 7.0915C4.74628 6.9275 4.70163 6.85151 4.72137 6.77681C4.73984 6.70726 4.78406 6.68021 4.87336 6.68536C4.97468 6.6918 5.01503 6.6596 5.08029 6.51621C5.15757 6.34534 5.44307 6.13239 5.55813 6.15987C5.58603 6.16631 5.64657 6.13282 5.69251 6.08517C5.76635 6.00789 5.78996 6.00617 5.89858 6.06756C5.96599 6.10577 6.0789 6.15429 6.14931 6.17575C6.22015 6.19722 6.27853 6.23543 6.27853 6.26033C6.27853 6.28566 6.3425 6.31013 6.42021 6.31485C6.49792 6.31958 6.63659 6.3595 6.7289 6.40372C6.8212 6.44794 6.97705 6.48959 7.07493 6.49603C7.17325 6.50204 7.26469 6.52608 7.27886 6.54969C7.29303 6.57331 7.37589 6.61109 7.46261 6.63255C7.54933 6.65402 7.65709 6.71584 7.70303 6.76951C7.82324 6.9099 7.9134 6.89916 8.23411 6.70511C8.4346 6.58318 8.54665 6.54283 8.61363 6.56816C8.67588 6.59177 8.70508 6.58533 8.69692 6.54798C8.68962 6.51664 8.71023 6.48358 8.74286 6.47327C8.7772 6.46297 8.83301 6.53166 8.87895 6.63942L8.95666 6.82317L9.00474 6.69824C9.06056 6.55184 9.10735 6.53939 9.13955 6.66561C9.1563 6.73044 9.19322 6.75148 9.27436 6.74074C9.33919 6.73216 9.4873 6.78368 9.62598 6.86181C9.75735 6.93609 9.9162 6.9992 9.97802 7.00349C10.0375 7.00754 10.0943 7.02972 10.1407 7.06703L10.2279 7.20441C10.2335 7.21729 10.2081 7.2482 10.1661 7.2774C10.0944 7.32763 10.106 7.33622 10.2631 7.34695C10.3614 7.35425 10.4808 7.34051 10.5293 7.31776C10.5877 7.29028 10.6263 7.29286 10.6452 7.32548C10.6615 7.3521 10.7053 7.37571 10.7426 7.37829C10.8465 7.30874 10.9745 7.15332 11.2784 7.31819C11.3257 7.32076 11.3759 7.34309 11.3901 7.36713C11.4047 7.39117 11.4884 7.41392 11.5764 7.41693C11.7043 7.42122 11.74 7.40062 11.7567 7.31518C11.7696 7.24649 11.755 7.20699 11.7138 7.20441C11.6305 7.19926 11.6322 7.18853 11.7516 6.99319L11.8537 6.82747L12.0074 7.00435C12.1049 7.1164 12.1732 7.1632 12.1933 7.13186C12.2114 7.10395 12.1706 7.03054 12.1036 6.96871C12.0066 6.87942 11.9834 6.81759 11.9855 6.65617C11.9873 6.5454 12.0186 6.40931 12.056 6.35435C12.1062 6.28094 12.1161 6.18692 12.0929 5.99801C12.0456 5.62021 12.0959 5.44891 12.2766 5.44204ZM11.6039 5.53434C11.6532 5.52962 11.7194 5.53005 11.8044 5.53434L11.9821 5.54293L11.9564 5.70607C11.9387 5.81426 11.9521 5.89369 11.995 5.9392C12.0864 6.03665 12.056 6.27879 11.9392 6.38011C11.8031 6.49903 11.7301 6.48186 11.6575 6.314C11.6232 6.235 11.5734 6.16888 11.5459 6.16717C11.4772 6.16287 11.3729 6.0096 11.3708 5.91086C11.369 5.81641 11.4648 5.80825 11.5468 5.89583C11.6189 5.97225 11.6189 5.91344 11.5468 5.7782C11.4575 5.6099 11.4558 5.54808 11.6039 5.53434ZM14.0854 7.45772C14.1081 7.45134 14.1322 7.45134 14.1549 7.45772C14.2172 7.4736 14.2429 7.52126 14.2429 7.62086C14.2429 7.73806 14.2215 7.76082 14.1137 7.7664C14.0064 7.77198 13.9858 7.75567 13.9862 7.66508C13.9871 7.55002 14.024 7.47618 14.0854 7.45772ZM9.48859 7.69513C9.48145 7.69309 9.47398 7.6925 9.46661 7.69338C9.45924 7.69427 9.45211 7.69661 9.44566 7.70028C9.41475 7.71746 9.41947 7.74236 9.46026 7.77155C9.50061 7.79989 9.50748 7.82822 9.47786 7.84883C9.3877 7.91065 9.3027 8.03602 9.34949 8.03902C9.37568 8.04074 9.40874 8.01326 9.42248 7.97763C9.43622 7.94242 9.51178 7.90378 9.58991 7.89133C9.77109 7.863 9.8239 7.78787 9.66977 7.77799C9.60537 7.77413 9.54011 7.74923 9.5238 7.72218C9.51588 7.70906 9.50331 7.6994 9.48859 7.69513ZM13.9093 8.64952C13.9454 8.65167 13.9866 8.68644 14.0017 8.72551C14.0287 8.79764 13.936 8.82039 13.8759 8.75685C13.8235 8.70104 13.8407 8.64523 13.9093 8.64952ZM13.4869 8.76973C13.5607 8.79034 13.5607 8.79978 13.4929 8.89252C13.4216 8.98912 13.2838 9.02432 13.2838 8.94618C13.2838 8.86118 13.4126 8.74955 13.4869 8.76973ZM4.76388 8.78218C4.8506 8.78776 4.8798 8.81052 4.86863 8.86633C4.85189 8.95091 4.79135 8.97495 4.70163 8.9333C4.59429 8.8835 4.63894 8.77445 4.76388 8.78218ZM10.267 8.8337C10.2433 8.81824 10.1729 8.85259 10.1094 8.90969C9.9733 9.03119 10.0493 9.05652 10.2038 8.9406C10.2627 8.89724 10.2906 8.84916 10.267 8.8337ZM13.7466 8.91914C13.8127 8.92343 13.8304 8.94833 13.8123 9.01788C13.7844 9.12221 13.7325 9.16385 13.6878 9.11705C13.6213 9.04665 13.6608 8.91355 13.7466 8.91914ZM4.77805 9.96454C4.79951 9.96454 4.81969 9.97012 4.83686 9.98171C4.86176 9.99889 4.84416 10.0384 4.79736 10.071C4.68832 10.147 4.64281 10.1449 4.64281 10.0637C4.64281 10.0079 4.71408 9.96368 4.77805 9.96454ZM8.28133 10.1689C8.35131 10.1732 8.38008 10.2045 8.38265 10.2797C8.3848 10.3376 8.39553 10.4329 8.40627 10.4918C8.42988 10.6197 8.41614 10.6227 8.31997 10.5102C8.27131 10.4453 8.23573 10.3715 8.21522 10.293C8.18774 10.1813 8.19718 10.1642 8.28133 10.1689ZM11.8267 10.5763C11.7846 10.5746 11.7868 10.5883 11.8357 10.6227C11.8743 10.6502 11.8894 10.6725 11.8683 10.6716C11.8477 10.6708 11.8447 10.6927 11.8619 10.721C11.9057 10.7949 11.9469 10.7412 11.9134 10.6532C11.8984 10.6124 11.8593 10.5785 11.8267 10.5768M12.9283 11.4612C12.8768 11.4599 12.8274 11.4766 12.7618 11.5114C12.6184 11.587 12.5806 11.6814 12.712 11.6355C12.873 11.5792 12.961 11.5694 12.9537 11.6097C12.9365 11.699 12.9614 11.7291 13.0314 11.7067C13.0691 11.6941 13.1084 11.687 13.1482 11.6857C13.2241 11.6904 13.1932 11.5599 13.1087 11.5183C13.0331 11.4805 12.9799 11.4625 12.9283 11.4612ZM13.3637 11.872C13.3564 11.8823 13.3753 11.9287 13.4173 12.0322C13.4598 12.1356 13.4998 12.2211 13.5062 12.2215C13.5127 12.2224 13.5178 12.164 13.5178 12.0931C13.5178 12.0171 13.4817 11.9399 13.4289 11.9038C13.4134 11.8925 13.3972 11.8822 13.3804 11.8729C13.3718 11.8686 13.3663 11.8686 13.3632 11.872M13.1074 11.8909C13.0977 11.8909 13.0881 11.8926 13.079 11.8961C13.0048 11.9201 12.9588 12.0545 12.958 12.249C12.958 12.3254 12.9773 12.3692 13.0043 12.3542C13.0301 12.3396 13.0387 12.276 13.0228 12.2125H13.0219C13.0141 12.1733 13.0142 12.133 13.0223 12.0939C13.0304 12.0548 13.0464 12.0177 13.0692 11.9849C13.1134 11.9205 13.1254 11.8935 13.1074 11.8909ZM13.6058 11.9012C13.5801 11.8995 13.5715 11.9205 13.5874 11.9472C13.6032 11.9738 13.638 11.997 13.6638 11.9987C13.6895 12 13.6973 11.9798 13.6814 11.9532C13.6655 11.9266 13.6316 11.9029 13.6058 11.9012ZM13.8862 14.3205C13.9523 14.3175 14.0321 14.3677 14.0321 14.4321C14.0321 14.4677 14.0214 14.4965 14.0085 14.4956C13.9956 14.4948 13.9849 14.4729 13.9849 14.4471C13.9849 14.4214 13.939 14.3977 13.8827 14.3943C13.8119 14.39 13.7943 14.3741 13.8269 14.3428C13.8434 14.3286 13.8644 14.3207 13.8862 14.3205ZM5.48428 14.3389C5.51004 14.3402 5.53022 14.3625 5.53022 14.3883C5.5303 14.3943 5.52913 14.4002 5.52679 14.4057C5.52445 14.4112 5.52098 14.4161 5.51662 14.4202C5.51225 14.4243 5.50708 14.4274 5.50144 14.4294C5.4958 14.4314 5.48981 14.4321 5.48385 14.4317C5.47132 14.4307 5.45959 14.4251 5.45094 14.416C5.44229 14.4069 5.43734 14.3949 5.43706 14.3823C5.43706 14.3565 5.45852 14.3372 5.48428 14.3389ZM5.60321 14.3926C5.68607 14.3977 5.99819 14.6433 5.99819 14.7034C5.99819 14.7206 5.96513 14.7446 5.92606 14.7571C5.87883 14.7725 5.84019 14.7412 5.81186 14.6656C5.78825 14.603 5.72599 14.5347 5.67362 14.5149C5.58861 14.4827 5.53409 14.3883 5.60321 14.3926ZM13.902 14.5085C13.909 14.5068 13.9162 14.5066 13.9232 14.508C13.9301 14.5094 13.9367 14.5124 13.9424 14.5167C13.9986 14.5553 13.9982 14.682 13.9415 14.6785C13.9171 14.6768 13.8844 14.6528 13.8686 14.6266C13.8398 14.5785 13.8638 14.5197 13.9012 14.5089L13.902 14.5085ZM13.486 14.7017C13.5406 14.7047 13.6105 14.7223 13.7222 14.7562C13.8668 14.8 13.9849 14.8494 13.9849 14.8653C13.9849 14.8816 14.1008 14.9529 14.2425 15.0241C14.4567 15.1315 14.4988 15.1722 14.4988 15.2714C14.4988 15.3727 14.4778 15.3886 14.3546 15.3809C14.2756 15.3762 14.2017 15.3629 14.1914 15.3517C14.1472 15.3049 14.1768 15.2534 14.2451 15.2577C14.285 15.2603 14.3043 15.2401 14.2884 15.2135C14.2726 15.1868 14.1884 15.1611 14.1017 15.1555C14.0004 15.1491 13.9214 15.1126 13.8827 15.0542C13.8012 14.9327 13.5212 14.8533 13.4663 14.9357C13.4328 14.9851 13.4173 14.9846 13.3864 14.934C13.3632 14.897 13.3126 14.8829 13.2628 14.8988C13.134 14.9404 13.1971 14.809 13.3409 14.7369C13.3849 14.7116 13.4353 14.6994 13.486 14.7017ZM14.3357 14.7966C14.3743 14.7992 14.4061 14.8202 14.4061 14.8442C14.4061 14.9031 14.3327 14.9413 14.2953 14.9013C14.2425 14.8455 14.2631 14.7923 14.3357 14.7966ZM14.4185 14.9846C14.4743 14.9936 14.4636 15.0572 14.4035 15.0735C14.3726 15.0817 14.3554 15.0641 14.3657 15.034C14.376 15.0039 14.4001 14.9812 14.4185 14.9846ZM14.6516 15.1422C14.7676 15.1495 14.9659 15.2813 14.9659 15.3517C14.9659 15.3762 14.9071 15.3921 14.8354 15.3878C14.7633 15.3835 14.6826 15.4002 14.6568 15.4247C14.6306 15.4492 14.5945 15.4535 14.5769 15.4346C14.5598 15.4161 14.5452 15.3414 14.5452 15.2688C14.5452 15.1619 14.5658 15.1366 14.6516 15.1422ZM13.9806 15.2461C14.0061 15.2468 14.0312 15.2525 14.0545 15.2628C14.0931 15.28 14.1249 15.3161 14.1249 15.3427C14.1249 15.4045 13.9068 15.3908 13.8686 15.3264C13.8411 15.2804 13.9063 15.2439 13.9806 15.2461ZM15.1179 15.3208C15.1754 15.3324 15.2227 15.3629 15.2227 15.3886C15.2227 15.4144 15.1754 15.4393 15.1179 15.444C15.0453 15.4496 15.0131 15.4277 15.0131 15.3753C15.0131 15.3225 15.0453 15.3058 15.1179 15.3208ZM16.1049 25.8367C16.2041 25.8427 16.2037 25.9715 16.1041 25.9852C16.0311 25.9947 15.9066 26.2754 15.8078 26.6532C15.6764 27.4814 15.737 27.9996 16.0027 28.4032C16.4771 28.9398 19.0252 29.4653 19.6627 30.4747C18.0197 29.9393 13.1842 29.1738 11.4755 29.0055L11.4459 28.7848C11.4248 28.6307 11.4334 28.5534 11.4742 28.5298C11.5137 28.5075 11.4987 28.4946 11.4283 28.4899C11.3703 28.4856 11.3201 28.4663 11.3175 28.447C11.272 28.1164 11.2905 28.0546 11.4536 27.9966C11.5429 27.9648 11.6919 27.9519 11.7846 27.9683C11.8774 27.9841 11.9765 27.9798 12.0053 27.958C12.0405 27.9313 12.0778 27.9674 12.1182 28.0679C12.1762 28.2113 12.1856 28.2164 12.393 28.2005C12.7442 28.173 12.9249 28.1937 13.1589 28.2877C13.4817 28.4173 13.9845 28.4328 13.9119 28.3113C13.8978 28.2872 13.9403 28.2709 14.0064 28.2752C14.0733 28.2795 14.1395 28.3109 14.1519 28.3448C14.1648 28.3787 14.2206 28.4122 14.2777 28.4199C14.3385 28.4304 14.3935 28.4624 14.4327 28.5101C14.5151 28.6277 14.5332 28.6028 14.5022 28.4117C14.4821 28.2855 14.4481 28.2289 14.3816 28.213C14.2816 28.1894 14.1721 28.0674 14.1721 27.9799C14.1721 27.9498 14.2193 27.9069 14.2768 27.8833L14.3825 27.8403L14.2648 27.7871C14.1639 27.7399 14.1592 27.7291 14.2296 27.7047C14.288 27.6849 14.3035 27.645 14.2833 27.5638C14.2627 27.4805 14.2781 27.4436 14.3421 27.4239C14.4009 27.4024 14.4544 27.3684 14.4988 27.3243C14.5374 27.2839 14.6122 27.2307 14.665 27.2058C14.7431 27.1693 14.771 27.1783 14.8178 27.2556C14.8736 27.3492 14.8749 27.3487 14.9724 27.2642C15.0578 27.1899 15.0672 27.1452 15.041 26.9426C15.0136 26.7365 15.0222 26.7022 15.1054 26.6627C15.157 26.6378 15.1999 26.5914 15.1999 26.5588C15.1999 26.5257 15.2415 26.4562 15.2931 26.4042C15.3446 26.3527 15.3871 26.2982 15.3871 26.284C15.3871 26.2419 15.57 26.0835 15.6159 26.0865C15.6395 26.0878 15.6661 26.0728 15.6747 26.053C15.7005 25.9938 16.0225 25.8315 16.1049 25.8367ZM9.03093 28.2374L9.47185 28.4117C9.80157 28.5418 9.95656 28.5818 10.0806 28.5663C10.1815 28.5534 10.2485 28.5637 10.2485 28.5921C10.2485 28.6178 10.3391 28.6573 10.4499 28.6809C10.5705 28.7067 10.6868 28.7668 10.7418 28.8325L10.8465 28.8419C10.8551 28.7805 10.9058 28.7337 10.9771 28.7204C11.1247 28.6925 11.1969 28.7406 11.1685 28.8488C11.1557 28.8952 11.1703 28.9845 11.1995 28.9978C9.79213 28.8346 8.86994 28.7333 7.57424 28.8175C7.61287 28.7947 7.83097 28.6861 7.93186 28.6917C8.03919 28.6981 8.19375 28.6616 8.30752 28.6019C8.41314 28.5466 8.578 28.4916 8.67373 28.4796C8.77591 28.4667 8.88625 28.4117 8.93992 28.3473L9.03093 28.2374Z" fill="black"/>
<g filter="url(#filter0_d_17_42)">
<path d="M49.7285 13.1816C51.4863 13.1816 52.8828 13.1816 53.918 13.1816C54.9596 13.1816 55.5911 13.1849 55.8125 13.1914C56.776 13.237 57.4564 13.3509 57.8535 13.5332C58.2507 13.709 58.5664 13.9076 58.8008 14.1289C59.3021 14.6237 59.5527 15.2227 59.5527 15.9258C59.5527 16.6224 59.3086 17.2344 58.8203 17.7617C58.6706 17.9245 58.498 18.0645 58.3027 18.1816C59.3639 18.377 60.2331 18.8229 60.9102 19.5195C61.6458 20.2747 62.0137 21.196 62.0137 22.2832C62.0137 23.39 61.6719 24.3438 60.9883 25.1445C60.0312 26.2513 58.5534 26.8568 56.5547 26.9609C56.0469 26.987 55.5456 27 55.0508 27H49.7285V13.1816ZM56.1348 17.9863L56.6328 18.0449H56.7891C57.3034 18.0449 57.7493 17.8561 58.127 17.4785C58.5306 17.0749 58.7324 16.5801 58.7324 15.9941C58.7324 15.278 58.4232 14.7279 57.8047 14.3438C57.4922 14.1484 57.1797 14.0345 56.8672 14.002C56.5612 13.9629 56.3203 13.9368 56.1445 13.9238C55.7799 13.8978 55.3014 13.8848 54.709 13.8848V26.2773H55.793C56.8997 26.2773 57.8014 26.1406 58.498 25.8672C59.3314 25.5807 59.9922 25.1185 60.4805 24.4805C60.9427 23.875 61.1738 23.2402 61.1738 22.5762C61.1738 21.9121 61.0762 21.3522 60.8809 20.8965C60.6855 20.4408 60.4023 20.0534 60.0312 19.7344C59.276 19.0768 58.2246 18.748 56.877 18.748L56.2031 18.8066C55.9948 18.8066 55.8418 18.7643 55.7441 18.6797C55.6465 18.5951 55.5977 18.4974 55.5977 18.3867C55.5977 18.1198 55.7767 17.9863 56.1348 17.9863ZM63.4785 21.7266C63.4785 20.9453 63.6185 20.2357 63.8984 19.5977C64.1849 18.9531 64.5755 18.3932 65.0703 17.918C66.138 16.9023 67.4792 16.3945 69.0938 16.3945C70.7409 16.3945 72.082 16.9219 73.1172 17.9766C74.1068 18.9727 74.6016 20.2324 74.6016 21.7559C74.6016 23.2858 74.0938 24.5651 73.0781 25.5938C72.0299 26.6549 70.6888 27.1855 69.0547 27.1855C67.4596 27.1855 66.138 26.681 65.0898 25.6719C64.0156 24.6302 63.4785 23.3151 63.4785 21.7266ZM68.7812 26.4531C68.8333 26.4596 68.8854 26.4629 68.9375 26.4629H69.0742C70.3893 26.4629 71.4928 26.056 72.3848 25.2422C73.3353 24.3633 73.8105 23.2109 73.8105 21.7852C73.8105 20.3919 73.3646 19.2624 72.4727 18.3965C71.5938 17.5371 70.4577 17.1074 69.0645 17.1074H68.918C68.8724 17.1074 68.8268 17.1107 68.7812 17.1172V26.4531ZM80.5293 27.1855C78.2441 27.1855 77.1016 26.069 77.1016 23.8359V16.5703H81.2812V26.1309C81.3464 26.1634 81.4277 26.1797 81.5254 26.1797H81.8477C82.3685 26.1797 82.987 25.8281 83.7031 25.125C83.918 24.9102 84.1198 24.6758 84.3086 24.4219V16.5703H88.5078V27H84.3086V25.4961C83.2474 26.6224 81.9876 27.1855 80.5293 27.1855ZM98.9277 17.6348C98.765 17.5306 98.5892 17.4785 98.4004 17.4785C98.2116 17.4785 98.0163 17.5241 97.8145 17.6152C97.6126 17.6999 97.401 17.8203 97.1797 17.9766C96.7174 18.3086 96.291 18.7513 95.9004 19.3047V27H91.7012V16.5703H95.9004V18.2402C97.0137 17.0098 98.2734 16.3945 99.6797 16.3945C101.978 16.3945 103.127 17.5078 103.127 19.7344V27H98.9277V17.6348ZM113.723 26.4629C112.909 26.9447 112.046 27.1855 111.135 27.1855C110.23 27.1855 109.432 27.0521 108.742 26.7852C108.059 26.5117 107.473 26.1341 106.984 25.6523C105.969 24.6432 105.461 23.3314 105.461 21.7168C105.461 20.2194 105.962 18.9727 106.965 17.9766C108.033 16.9219 109.426 16.3945 111.145 16.3945C112.056 16.3945 112.915 16.5931 113.723 16.9902V13.1816H117.746V27H113.723V26.4629ZM110.949 17.1074C110.747 17.1074 110.555 17.1204 110.373 17.1465V26.4043C110.607 26.4434 110.861 26.4629 111.135 26.4629C112.04 26.4629 112.902 26.1764 113.723 25.6035V17.8594C112.844 17.3581 111.919 17.1074 110.949 17.1074ZM120.939 13.1816H125.139V27H120.939V13.1816ZM137.404 24.627C137.658 24.627 137.785 24.7441 137.785 24.9785C137.785 25.1543 137.671 25.3626 137.443 25.6035C136.415 26.6582 135.005 27.1855 133.215 27.1855C131.607 27.1855 130.253 26.7005 129.152 25.7305C128.013 24.7214 127.443 23.4453 127.443 21.9023C127.443 20.3268 127.958 19.0312 128.986 18.0156C130.074 16.9349 131.519 16.3945 133.322 16.3945C134.768 16.3945 135.982 16.834 136.965 17.7129C138.026 18.6569 138.557 19.8971 138.557 21.4336C138.557 21.6549 138.55 21.8893 138.537 22.1367H132.092V26.3262C132.535 26.4173 133.033 26.4629 133.586 26.4629C134.758 26.4629 135.757 26.0755 136.584 25.3008C136.753 25.1315 136.874 24.998 136.945 24.9004C137.095 24.7181 137.248 24.627 137.404 24.627ZM134.797 17.293C134.374 17.1693 133.895 17.1074 133.361 17.1074C132.827 17.1074 132.404 17.1432 132.092 17.2148V21.4238H134.797V17.293ZM140.275 25.6914C140.275 25.5938 140.308 25.5059 140.373 25.4277C140.445 25.3431 140.536 25.3008 140.646 25.3008C140.757 25.3008 140.848 25.3333 140.92 25.3984C140.92 25.3984 141.001 25.4733 141.164 25.623C141.841 26.2155 142.788 26.5117 144.006 26.5117C144.826 26.5117 145.354 26.3424 145.588 26.0039C145.653 25.9128 145.686 25.8216 145.686 25.7305C145.686 25.6328 145.666 25.5417 145.627 25.457C145.594 25.3659 145.52 25.2585 145.402 25.1348C145.285 25.0046 145.119 24.8516 144.904 24.6758L144.045 23.9824C142.626 22.8757 141.652 21.9772 141.125 21.2871C140.643 20.6556 140.402 20.0111 140.402 19.3535C140.402 18.5267 140.783 17.8333 141.545 17.2734C142.333 16.6875 143.352 16.3945 144.602 16.3945C145.48 16.3945 146.174 16.4954 146.682 16.6973C147.189 16.8991 147.548 17.0846 147.756 17.2539C147.964 17.4167 148.068 17.5664 148.068 17.7031C148.068 17.9831 147.958 18.123 147.736 18.123C147.632 18.123 147.535 18.0872 147.443 18.0156C147.359 17.9375 147.186 17.8105 146.926 17.6348C146.665 17.4525 146.32 17.3092 145.891 17.2051C145.461 17.1009 145.061 17.0488 144.689 17.0488C144.318 17.0488 144.055 17.1074 143.898 17.2246C143.749 17.3418 143.674 17.459 143.674 17.5762C143.674 17.6868 143.697 17.7943 143.742 17.8984C143.788 17.9961 143.872 18.1133 143.996 18.25C144.283 18.5885 144.742 18.9889 145.373 19.4512C146.005 19.9134 146.538 20.3366 146.975 20.7207C147.411 21.1048 147.753 21.4596 148 21.7852C148.449 22.3711 148.674 22.9635 148.674 23.5625C148.674 24.1615 148.563 24.6758 148.342 25.1055C148.12 25.5286 147.805 25.8932 147.395 26.1992C146.529 26.8568 145.373 27.1855 143.928 27.1855C142.769 27.1855 141.802 26.9642 141.027 26.5215C140.526 26.2415 140.275 25.9648 140.275 25.6914ZM150.275 25.6914C150.275 25.5938 150.308 25.5059 150.373 25.4277C150.445 25.3431 150.536 25.3008 150.646 25.3008C150.757 25.3008 150.848 25.3333 150.92 25.3984C150.92 25.3984 151.001 25.4733 151.164 25.623C151.841 26.2155 152.788 26.5117 154.006 26.5117C154.826 26.5117 155.354 26.3424 155.588 26.0039C155.653 25.9128 155.686 25.8216 155.686 25.7305C155.686 25.6328 155.666 25.5417 155.627 25.457C155.594 25.3659 155.52 25.2585 155.402 25.1348C155.285 25.0046 155.119 24.8516 154.904 24.6758L154.045 23.9824C152.626 22.8757 151.652 21.9772 151.125 21.2871C150.643 20.6556 150.402 20.0111 150.402 19.3535C150.402 18.5267 150.783 17.8333 151.545 17.2734C152.333 16.6875 153.352 16.3945 154.602 16.3945C155.48 16.3945 156.174 16.4954 156.682 16.6973C157.189 16.8991 157.548 17.0846 157.756 17.2539C157.964 17.4167 158.068 17.5664 158.068 17.7031C158.068 17.9831 157.958 18.123 157.736 18.123C157.632 18.123 157.535 18.0872 157.443 18.0156C157.359 17.9375 157.186 17.8105 156.926 17.6348C156.665 17.4525 156.32 17.3092 155.891 17.2051C155.461 17.1009 155.061 17.0488 154.689 17.0488C154.318 17.0488 154.055 17.1074 153.898 17.2246C153.749 17.3418 153.674 17.459 153.674 17.5762C153.674 17.6868 153.697 17.7943 153.742 17.8984C153.788 17.9961 153.872 18.1133 153.996 18.25C154.283 18.5885 154.742 18.9889 155.373 19.4512C156.005 19.9134 156.538 20.3366 156.975 20.7207C157.411 21.1048 157.753 21.4596 158 21.7852C158.449 22.3711 158.674 22.9635 158.674 23.5625C158.674 24.1615 158.563 24.6758 158.342 25.1055C158.12 25.5286 157.805 25.8932 157.395 26.1992C156.529 26.8568 155.373 27.1855 153.928 27.1855C152.769 27.1855 151.802 26.9642 151.027 26.5215C150.526 26.2415 150.275 25.9648 150.275 25.6914Z" fill="black"/>
</g>
<defs>
<filter id="filter0_d_17_42" x="45.7285" y="13.1816" width="116.945" height="22.0039" filterUnits="userSpaceOnUse" color-interpolation-filters="sRGB">
<feFlood flood-opacity="0" result="BackgroundImageFix"/>
<feColorMatrix in="SourceAlpha" type="matrix" values="0 0 0 0 0 0 0 0 0 0 0 0 0 0 0 0 0 0 127 0" result="hardAlpha"/>
<feOffset dy="4"/>
<feGaussianBlur stdDeviation="2"/>
<feComposite in2="hardAlpha" operator="out"/>
<feColorMatrix type="matrix" values="0 0 0 0 0 0 0 0 0 0 0 0 0 0 0 0 0 0 0.25 0"/>
<feBlend mode="normal" in2="BackgroundImageFix" result="effect1_dropShadow_17_42"/>
<feBlend mode="normal" in="SourceGraphic" in2="effect1_dropShadow_17_42" result="shape"/>
</filter>
</defs>
</svg>
